<svg width="362" height="110" viewBox="0 0 362 110" fill="none" xmlns="http://www.w3.org/2000/svg">
<path fill-rule="evenodd" clip-rule="evenodd" d="M38.1284 4.54726C36.0648 6.85071 34.8192 9.05278 34.1491 11.1155C32.9829 14.7073 33.4572 18.2046 34.9323 21.6129C36.4259 25.0637 38.9115 28.3332 41.6125 31.3096C43.4088 33.2896 45.1714 35.0094 46.7742 36.5731C47.6271 37.4056 48.4344 38.1933 49.1782 38.9531L49.1776 38.9537C50.9104 40.6679 52.6679 42.235 54.3219 43.7097C61.5805 50.1805 66.8446 54.874 59.248 62.4285L53.9641 67.6836C54.6364 68.3594 55.401 69.0951 56.2477 69.9097L56.2488 69.9103C56.5476 70.1973 56.8564 70.4949 57.1748 70.8026C58.5059 72.0877 59.967 73.5216 61.4162 75.0742C64.2972 78.1608 67.239 81.8253 69.0871 85.9229C70.4784 89.0061 71.27 92.3842 70.9246 95.9463L72.1887 94.6892H72.1915H72.1943L88.7086 78.266L91.8 75.1917C102.625 64.4263 102.625 46.9731 91.8 36.2078L71.7392 16.2576L71.7375 16.256L59.877 4.46149C53.8949 -1.48713 44.1964 -1.48718 38.215 4.46144L38.1284 4.54726Z" fill="url(#paint0_linear_9_23503)"/>
<path fill-rule="evenodd" clip-rule="evenodd" d="M61.7904 105.019C63.854 102.715 65.1002 100.513 65.7696 98.4499C66.9359 94.8581 66.4622 91.3614 64.9871 87.9526C63.4934 84.5018 61.0073 81.2322 58.3069 78.2559C56.5105 76.2759 54.7479 74.5561 53.1451 72.9923C52.2922 72.1604 51.4844 71.3721 50.7406 70.6124L50.7417 70.6118C49.009 68.8976 47.2514 67.3305 45.5968 65.8558C38.3389 59.3849 33.0742 54.6915 40.6708 47.137L45.9552 41.8825C45.2829 41.2061 44.5178 40.4704 43.6711 39.6563L43.6705 39.6558V39.6552C43.3718 39.3682 43.0629 39.0711 42.744 38.7634C41.4129 37.4777 39.9524 36.0438 38.5026 34.4913C35.6221 31.4053 32.6803 27.7402 30.8317 23.6432C29.4409 20.5594 28.6494 17.1813 28.9948 13.6191L27.7301 14.8768H27.7279H27.725L11.2108 31.2995L8.11877 34.3738C-2.70626 45.1391 -2.70626 62.5929 8.11877 73.3577L28.1802 93.3078L28.1819 93.3095L40.0424 105.104C46.0239 111.053 55.7223 111.053 61.7044 105.104L61.7904 105.019Z" fill="url(#paint1_linear_9_23503)"/>
<path d="M184.424 5.29392C184.424 4.55558 185.022 3.95703 185.76 3.95703H197.624C198.362 3.95703 198.96 4.55558 198.96 5.29392V81.4075C198.96 82.1458 198.362 82.7444 197.624 82.7444H185.76C185.022 82.7444 184.424 82.1458 184.424 81.4075V5.29392Z" fill="#000219"/>
<path fill-rule="evenodd" clip-rule="evenodd" d="M117.284 56.334C117.284 39.9107 128.825 28.481 145.47 28.481C162.005 28.481 173.545 39.9107 173.545 56.334C173.545 72.6463 162.005 84.076 145.47 84.076C128.825 84.076 117.284 72.6463 117.284 56.334ZM131.821 56.334C131.821 64.8785 137.37 70.8708 145.47 70.8708C153.46 70.8708 159.008 64.8785 159.008 56.334C159.008 47.6785 153.46 41.6862 145.47 41.6862C137.37 41.6862 131.821 47.6785 131.821 56.334Z" fill="#000219"/>
<path d="M229.342 13.6218C229.342 18.5044 225.347 22.1663 220.465 22.1663C215.471 22.1663 211.587 18.5044 211.587 13.6218C211.587 8.62824 215.471 4.9663 220.465 4.9663C225.347 4.9663 229.342 8.62824 229.342 13.6218Z" fill="#000219"/>
<path d="M213.252 81.4075C213.252 82.1458 213.85 82.7444 214.589 82.7444H226.452C227.19 82.7444 227.789 82.1458 227.789 81.4075V31.1495C227.789 30.4111 227.19 29.8126 226.452 29.8126H214.589C213.85 29.8126 213.252 30.4111 213.252 31.1495V81.4075Z" fill="#000219"/>
<path fill-rule="evenodd" clip-rule="evenodd" d="M282.4 29.8126C281.661 29.8126 281.063 30.4111 281.063 31.1495V32.6978C276.957 30.0345 271.741 28.481 265.86 28.481C251.212 28.481 239.45 39.1339 239.45 55.0024C239.45 68.6514 251.212 80.525 265.86 80.525C271.741 80.525 276.957 78.9715 281.063 76.3082V80.4035C281.063 89.059 275.625 93.7197 268.523 93.7197C261.511 93.7197 256.99 90.3651 255.852 85.3483C255.702 84.6872 255.14 84.1764 254.462 84.1764H242.345C241.563 84.1764 240.945 84.8469 241.055 85.6213C242.835 98.1698 253.877 106.925 268.523 106.925C284.281 106.925 295.6 96.9378 295.6 80.4035V31.1495C295.6 30.4111 295.001 29.8126 294.263 29.8126H282.4ZM265.784 67.8093C258.714 66.7069 253.987 60.6273 253.987 55.0024C253.987 46.5688 259.757 41.0204 268.08 41.0204C271.345 41.0204 277.647 42.7269 281.063 47.8935C282.29 49.8897 282.995 52.2519 282.995 54.8452C282.995 62.4353 276.678 68.1279 268.957 68.1279C267.862 68.1279 266.8 68.0183 265.784 67.8093Z" fill="#000219"/>
<path fill-rule="evenodd" clip-rule="evenodd" d="M333.378 28.481C316.733 28.481 305.192 39.9107 305.192 56.334C305.192 72.6463 316.733 84.076 333.378 84.076C349.912 84.076 361.453 72.6463 361.453 56.334C361.453 39.9107 349.912 28.481 333.378 28.481ZM333.378 70.8708C325.277 70.8708 319.729 64.8785 319.729 56.334C319.729 47.6785 325.277 41.6862 333.378 41.6862C341.368 41.6862 346.916 47.6785 346.916 56.334C346.916 64.8785 341.368 70.8708 333.378 70.8708Z" fill="#000219"/>
<defs>
<linearGradient id="paint0_linear_9_23503" x1="41.8102" y1="11.3398" x2="94.0828" y2="81.5904" gradientUnits="userSpaceOnUse">
<stop stop-color="#182D82"/>
<stop offset="1" stop-color="#5726F4"/>
</linearGradient>
<linearGradient id="paint1_linear_9_23503" x1="8.31508" y1="24.959" x2="54.7089" y2="109.628" gradientUnits="userSpaceOnUse">
<stop stop-color="#4668F0"/>
<stop offset="1" stop-color="#591EF4"/>
</linearGradient>
</defs>
</svg>
