<svg id="Layer_1" data-name="Layer 1" xmlns="http://www.w3.org/2000/svg" viewBox="0 0 900 900"><defs><style>.cls-1{fill:#004d8c;}.cls-2{fill:#99b8d1;}.cls-3{fill:#75a9cc;}.cls-4{fill:#fff;}.cls-5{fill:#002746;}.cls-6{fill:#003a69;}</style></defs><path class="cls-1" d="M59.82,616.67,44.94,615v-5.16H76.83V615l-14.06,1.65Zm37.32-6.81h7.43l18.05,59.34L118,675.11l18.3-65.25h6.26L121.8,683.18h-7.61L95,623.92l4.12-1.81L80.2,683.18H72.66L51.13,609.86H66.05L81.63,669.2l-4.93,5.91Zm2.2,6.81L85.61,615v-5.16h31.3V615l-13.48,1.65Zm37.06,0L125.53,615v-5.16h24.1V615L139,616.67Z"/><path class="cls-1" d="M154.6,615v-5.16h32.72V615l-15.16,1.65h-2.72Zm17.56,60.87,15.16,1.65v5.15H154.6v-5.15l14.84-1.65Zm-8.22-32c0-11.31,0-22.73-.33-34h14.9c-.33,11.09-.33,22.51-.33,34v3.33c0,12.74,0,24.16.33,35.46h-14.9c.33-11.09.33-22.5.33-34Zm7.12,4.31v-5.74H215v5.74ZM198.74,615v-5.16h32.71V615l-15,1.65h-2.64Zm17.67,60.87,15,1.65v5.15H198.74v-5.15l15-1.65Zm-8.53-32c0-11.31,0-22.73-.33-34h14.89c-.33,11.09-.33,22.51-.33,34v4.76c0,11.31,0,22.73.33,34H207.55c.33-11.09.33-22.5.33-35.46Z"/><path class="cls-1" d="M240.06,615v-5.16h33.11V615l-15.27,1.65h-2.72Zm17.84,60.87,15.27,1.65v5.15H240.06v-5.15l15.12-1.65Zm-8.42-32c0-11.31,0-22.73-.33-34H264c-.33,11.09-.33,22.51-.33,34v4.72c0,11.35,0,22.77.33,34.07H249.15c.33-11.09.33-22.5.33-34Z"/><path class="cls-1" d="M284,615.72l6.47-5.86-3.19,20h-7.68l.64-20h62.24l.59,20h-7.63l-3.2-20,6.44,5.86Zm29,60.17,16,1.65v5.15H293.73v-5.15l15.82-1.65Zm-8.82-32c0-11.31,0-22.73-.33-34h14.9c-.33,11.09-.33,22.51-.33,34v4.72c0,11.35,0,22.77.33,34.07h-14.9c.33-11.09.33-22.5.33-34Z"/><path class="cls-1" d="M349.57,615v-5.16h16.54v6.81h-1.42Zm16.54,60.87v6.8H349.57v-5.15l15.12-1.65Zm-7.12-32c0-11.31,0-22.73-.33-34h14.89c-.33,11.09-.33,22.51-.33,34v3.89c0,12.18,0,23.6.33,34.9H358.66c.33-11.09.33-22.5.33-34Zm35.67-34,6.48,5.86h-35v-5.86H404.9l.77,19.22H398ZM390.6,648.2H366.11v-5.78H390.6Zm17.26,15.28-.77,19.21h-41v-5.81h37.22l-6.47,5.81,3.32-19.21Zm-20.7-19.56,1.65-11.07h5.67v24.81h-5.67L387.16,646Z"/><path class="cls-1" d="M440,615v-5.16h32.71V615l-14.87,1.65h-2.72Zm17.84,60.87,14.27,1.65v5.15H440v-5.15l15.12-1.65Zm-8.42-32c0-11.31,0-22.73-.33-34h14.32c-.32,11.09-.32,22.51-.32,34v6.53c0,9.54,0,21,.32,32.26H449.06c.33-11.09.33-22.5.33-34Zm7,13.43L495,609.86h7.4l-46,54.89Zm22.53-23.72,26.64,49.08H490.31l-20-38.65ZM480,677.54l14-1.65h2.08l13.82,1.65v5.15H480ZM482.07,615v-5.16H507.4V615L495,616.67l-2.72.34Z"/><path class="cls-1" d="M515,677.54l11.61-1.65h2.68l13.39,1.65v5.15H515Zm6.31-64,6.57,2.88-12.53-1.33v-5.2h20.7l42.41,58.3v15H572Zm3-3.65,6.3,5.2v67.63h-6.3Zm35.79,0h27.68V615l-11.06,1.65h-2.64l-14-1.65Zm12.05,0h6.29v73.32l-6.29-6.3Z"/><path class="cls-1" d="M594.73,615v-5.16h33.12V615l-15.28,1.65h-2.72Zm17.84,60.87,15.28,1.65v5.15H594.73v-5.15l15.12-1.65Zm-8.41-32c0-11.31,0-22.73-.33-34h14.89c-.33,11.09-.33,22.51-.33,34v4.72c0,11.35,0,22.77.33,34.07H603.83c.33-11.09.33-22.5.33-34Z"/><path class="cls-1" d="M697,678.1a48.58,48.58,0,0,1-24.51,6.45c-22.28,0-37.45-15.32-37.45-38.35,0-22.59,14.71-38.18,38.32-38.18,8.15,0,15.4,1.64,21.67,5.15l.44,16.52h-7.63l-3.3-16.85,7.21,1.87v6c-5.65-4.84-11-6.86-16.86-6.86-13.6,0-24.3,10.93-24.3,32.34s10,32.42,24.59,32.42c5.4,0,9.25-1.35,14.75-4.18l-6.68,6.13v-7.38c0-8.62-.11-17.06-.33-25.73h14.41c-.23,8.52-.33,17.09-.33,25.94Zm-24.65-25.48v-5.16h31v5.16L690.91,654h-4.73Z"/><path class="cls-1" d="M708.2,615v-5.16h32.71V615l-15.16,1.65H723Zm17.55,60.87,15.16,1.65v5.15H708.2v-5.15L723,675.89Zm-8.21-32c0-11.31,0-22.73-.33-34H732.1c-.33,11.09-.33,22.51-.33,34v3.33c0,12.74,0,24.16.33,35.46H717.21c.33-11.09.33-22.5.33-34Zm7.11,4.31v-5.74h43.94v5.74ZM752.34,615v-5.16h32.71V615l-15,1.65h-2.64ZM770,675.89l15,1.65v5.15H752.34v-5.15l15-1.65Zm-8.54-32c0-11.31,0-22.73-.33-34H776c-.33,11.09-.33,22.51-.33,34v4.76c0,11.31,0,22.73.33,34H761.14c.33-11.09.33-22.5.33-35.46Z"/><path class="cls-1" d="M796,615.72l6.47-5.86-3.19,20H791.6l.63-20h62.24l.59,20h-7.63l-3.19-20,6.43,5.86Zm29,60.17,16,1.65v5.15H805.69v-5.15l15.82-1.65Zm-8.82-32c0-11.31,0-22.73-.34-34h14.9c-.33,11.09-.33,22.51-.33,34v4.72c0,11.35,0,22.77.33,34.07h-14.9c.34-11.09.34-22.5.34-34Z"/><path class="cls-1" d="M321.09,714.8v-5.16h33.52v5.16l-15.28,1.65H336.2Zm16.53,60.87v6.8H321.09v-5.16l15.11-1.64Zm-7.44-66h14.89c-.33,11.23-.33,22.65-.33,34v6.73c0,9.49,0,20.91.33,32.07H330.18c.33-11.23.33-22.64.33-32.86v-5.94C330.51,732.23,330.51,720.81,330.18,709.64Zm47.74,51.75-1.1,21.08h-39.2v-5.89h35.43l-7.2,5.89,4.35-21.08Z"/><path class="cls-1" d="M382.28,777.31l11.14-1.64h2.07l11.23,1.64v5.16H382.28Zm32-68h9l25,73.17H433.64l-20.37-62.3,3.33-2.81-21.67,65.11h-5.85Zm-12.32,45h29.64l2.12,5.73H400.11Zm20,23.17L435,775.79h4.82l13.85,1.65v5H421.92Z"/><path class="cls-1" d="M458.93,714.8v-5.16h16.54v6.81h-1.42Zm16.54,60.87v6.8H458.93v-5.16l15.12-1.64Zm-7.11-31.75c0-11.39,0-22.89-.33-34.28h14.73c-.33,11.17-.33,22.67-.33,34.28v3.23c0,12.47,0,23.93.33,35.32H468c.33-11.16.33-22.62.33-34.23Zm7.11-2H486.9c11.37,0,16.43-4.4,16.43-13.77,0-9.09-4.89-12.81-14.83-12.81h-13v-5.7h17.06c16.85,0,24.7,7.39,24.7,17.48,0,8.37-5.48,15.62-21.69,17.54v-1c18.29,1.3,25.64,8.59,25.64,18.63,0,9.59-7.47,20.17-31.56,20.17H475.47v-5.69h12.4c12.18,0,18.57-5.1,18.57-14.56,0-10.09-5.93-14.84-19-14.84H475.47Z"/><path class="cls-1" d="M566.07,766.41c0-6.46-3.55-9.35-11.61-12.69L550,751.84c-12.08-5.16-19.64-11.61-19.64-23.29,0-12.91,10.64-20.76,26-20.76a33.75,33.75,0,0,1,19.34,5.71l-.78,14.83h-8.36l-2.87-16.58,7.95,3.38v5.49c-5.62-4.75-9.72-6.81-15.46-6.81-7.39,0-13.14,4.12-13.14,11.23,0,6.34,4,9.88,11.22,12.88l4.72,2c14.26,6,19.93,12.17,19.93,22.88,0,13-10.38,21.51-27.31,21.51-8.24,0-16.9-2.23-22.59-5.77l.66-15.86h8.44L541,780l-7.82-2.87v-5.28c6.89,4.34,11,6.41,18.29,6.41C560.53,778.3,566.07,773.64,566.07,766.41Z"/><polygon class="cls-1" points="262.59 242.7 298.67 464.28 450 559.24 601.33 464.28 637.41 242.7 450 150.51 262.59 242.7"/><polygon class="cls-2" points="326.91 445.54 296.75 260.32 450 184.94 603.25 260.32 573.09 445.54 450 522.77 326.91 445.54"/><polygon class="cls-3" points="448.07 196.8 448.07 237.13 434.92 218.68 393.71 222.41 448.07 196.8"/><polygon class="cls-3" points="307.57 265.17 335.03 252.01 319.87 273.75 316.15 321.8 307.57 265.17"/><polygon class="cls-3" points="574 391.65 565.65 438.08 538.29 455.44 560.06 430.13 574 391.65"/><polygon class="cls-3" points="450 482.83 450 512.87 476.59 496.27 457.05 499.14 450 482.83"/><path class="cls-4" d="M482.92,185l2.4-6.61A117.77,117.77,0,0,1,526.53,192l-5.38.52a3.45,3.45,0,0,0-.84.21,110.23,110.23,0,0,0-26.68-8.87c-2.24-.48-4.48-.89-6.73-1.26a126.86,126.86,0,0,1,27.13,11c1.41.8,2.76,1.67,4.1,2.57v0l.34,3.52A132.14,132.14,0,0,0,482.92,185Z"/><polygon class="cls-4" points="351.72 461.35 315.44 476.49 323.34 437.98 511.52 218.59 511.99 237.57 530.94 234.55 351.72 461.35"/><path class="cls-4" d="M531.18,234.25l-16.59.39-2.81-16.36,7.63-8.88.05.5-5.85,8.65,6.09-6.12.06.55L514,221.45l6-6,.06.61-5.59,8.27,5.83-5.85.06.66-5.47,8.09,5.7-5.72.07.71-5.35,7.91,5.77-5.79c.08.14.16.28.25.41L515.73,233l7-7.08a4,4,0,0,0,.45.16l-4.58,6.78,6.74-6.77.71-.06-4.52,6.69,6.89-6.92.66-.07-4.63,6.85,7.06-7.08.6-.06-4.73,7,7.21-7.24.55-.05-4.83,7.15,7.36-7.4.88-.08Z"/><path class="cls-4" d="M575.24,252.38l-6,3.64A132.18,132.18,0,0,0,547.93,224l3.53-.34h0C558,230.2,563.25,238,567.85,246c1.1,1.92,2.14,3.86,3.16,5.83A127.73,127.73,0,0,0,557.63,225c-1-1.48-2.07-2.88-3.17-4.27a3.31,3.31,0,0,0,0-.77l-.51-5.3C563.42,226,571.38,239.84,575.24,252.38Z"/><path class="cls-4" d="M552.73,201.83h0v-.1S552.73,201.79,552.73,201.83Z"/><path class="cls-4" d="M549,193.18l2.62,27a.45.45,0,0,1-.1.33.48.48,0,0,1-.31.17l-27,2.62a.47.47,0,0,1-.34-.11.43.43,0,0,1-.16-.31l-2.62-27a.46.46,0,0,1,.1-.34.48.48,0,0,1,.31-.17l27-2.61a.45.45,0,0,1,.5.41Z"/><path class="cls-4" d="M553.83,197.82a19.82,19.82,0,0,0-1.72-2.41l-.25-2.51a3,3,0,0,0-.06-.32A17.14,17.14,0,0,1,553.83,197.82Z"/><path class="cls-4" d="M556.77,194.11A17.14,17.14,0,0,0,552,189,15.75,15.75,0,0,1,555.3,196a17.82,17.82,0,0,0-3.94-4.51,3.09,3.09,0,0,0-.71-.82,3.38,3.38,0,0,0-2.46-.76l-8.93.87,5.76-6.41A14.16,14.16,0,0,1,556.49,193C556.59,193.39,556.69,193.75,556.77,194.11Z"/><path class="cls-4" d="M564.12,184.79a15.7,15.7,0,0,0-4.82-4.71,15.46,15.46,0,0,1,3.35,6.57,15.78,15.78,0,0,0-4.81-4.78,15.55,15.55,0,0,1,3.34,6.63,16.14,16.14,0,0,0-4.79-4.84,15.53,15.53,0,0,1,3.31,6.7,15.82,15.82,0,0,0-4.77-4.9,13.91,13.91,0,0,1,1.18,1.59,16.78,16.78,0,0,0-8.82-5.24l5.54-6.16A14.08,14.08,0,0,1,563.89,184C564,184.26,564.05,184.52,564.12,184.79Z"/><path class="cls-4" d="M570,177.36a15.5,15.5,0,0,0-4.88-4.44,15.16,15.16,0,0,1,3.41,6.3,15.64,15.64,0,0,0-4.86-4.51,15.18,15.18,0,0,1,3.38,6.37,15.46,15.46,0,0,0-4.84-4.58,13.75,13.75,0,0,1,1.21,1.55,16.87,16.87,0,0,0-8.34-4.92l4.8-5.33a14.15,14.15,0,0,1,8.17,4.28,11.9,11.9,0,0,0-1.47-1A15.15,15.15,0,0,1,570,177.36Z"/><path class="cls-4" d="M575.91,169.93a15.33,15.33,0,0,0-4.94-4.18,14.94,14.94,0,0,1,3.46,6,15.34,15.34,0,0,0-4.92-4.24,14.91,14.91,0,0,1,3.45,6.1c-.25-.32-.51-.64-.78-1a16.68,16.68,0,0,0-10-7.4l4.16-4.63a14.21,14.21,0,0,1,8.32,4.68,14.12,14.12,0,0,0-2.2-1.39A14.75,14.75,0,0,1,575.91,169.93Z"/><path class="cls-4" d="M581.81,162.49a15.19,15.19,0,0,0-5-3.9,14.9,14.9,0,0,1,3.54,5.76,15.35,15.35,0,0,0-5-4,14.76,14.76,0,0,1,3.52,5.83l-.38-.45a16.67,16.67,0,0,0-9.94-7.57l3.61-4a14.6,14.6,0,0,1,6.39,2.92A15.06,15.06,0,0,1,581.81,162.49Z"/><path class="cls-4" d="M586.24,156.9a15.2,15.2,0,0,0-5.07-3.68,14.72,14.72,0,0,1,3.6,5.54,16.79,16.79,0,0,0-2.84-2.49,16.74,16.74,0,0,0-7.56-4.57l3.13-3.48a14,14,0,0,1,8.46,5.21,13.84,13.84,0,0,0-3.33-2A14.6,14.6,0,0,1,586.24,156.9Z"/><path class="cls-4" d="M589,152.78a16.63,16.63,0,0,0-9.32-7l3.24-3.59a17.3,17.3,0,0,0,3.87,4.53,18.19,18.19,0,0,0,2,1.41,15.8,15.8,0,0,1,1.82,3.17,15.47,15.47,0,0,0-5.1-3.44A14.56,14.56,0,0,1,589,152.78Z"/><path class="cls-4" d="M609.23,142.47a14.61,14.61,0,1,1-2-20.56A14.63,14.63,0,0,1,609.23,142.47Z"/><path class="cls-1" d="M526.84,236.85l-16.6,3.07h0l.26,4.64-156.86,193a54.9,54.9,0,0,1-18.12,14.51L510.23,239.93l-4.61.64-159.35,191a54.66,54.66,0,0,0-10.76,20.57L318,473.41l33-13.76.12-.15Z"/><path class="cls-1" d="M528.5,201.63a3.33,3.33,0,0,0-.75,2.46l.92,9.49a3.38,3.38,0,0,0,3.67,3l9.49-.92a3.37,3.37,0,0,0,3-3.68l-.92-9.49a3.36,3.36,0,0,0-3.68-3l-9.48.92A3.29,3.29,0,0,0,528.5,201.63ZM542,211a21.56,21.56,0,0,1-.92-2.24c-.25-.67-.5-1.47-.74-2.33-.12-.42-.26-.9-.36-1.3a1.6,1.6,0,0,0-1.39-1.16c-.44,0-.92-.06-1.36-.1-.89-.07-1.72-.17-2.43-.28a21.57,21.57,0,0,1-2.37-.47,21,21,0,0,1,2.39-.36c.71-.08,1.55-.14,2.44-.16.45,0,.9,0,1.39,0a2.75,2.75,0,0,1,1.74.64,2.79,2.79,0,0,1,.95,1.56c.11.52.16.93.24,1.39.14.88.25,1.71.31,2.43A20.84,20.84,0,0,1,542,211Z"/><path class="cls-1" d="M606.1,123.28a12.82,12.82,0,1,0,1.75,18.05A12.82,12.82,0,0,0,606.1,123.28Zm-4.83,19.57c-.15.06-.36.18-.64.28a8.85,8.85,0,0,1-2.48.53,9.09,9.09,0,0,1-1.71,0,9,9,0,0,1-1.89-.42,9.93,9.93,0,0,1-1.9-.84,10.06,10.06,0,0,1-.91-.59l-.41-.3a5.22,5.22,0,0,1-.42-.36,10.35,10.35,0,0,1-2.53-3.36,9.69,9.69,0,0,1-.63-1.83,9.06,9.06,0,0,1-.21-3.13,7.69,7.69,0,0,1,.2-1.09A4.34,4.34,0,0,1,588,131l.08-.24s0,.35,0,.94c0,.29,0,.65.07,1.05s.13.84.23,1.32a12.54,12.54,0,0,0,.46,1.49,13.89,13.89,0,0,0,.74,1.57,11.13,11.13,0,0,0,2.35,2.85c.11.1.24.23.34.31l.4.31c.26.18.48.36.76.52A10.94,10.94,0,0,0,595,142a10.79,10.79,0,0,0,1.63.55,13.63,13.63,0,0,0,1.54.28,12.12,12.12,0,0,0,2.39,0c.59,0,.93-.11.93-.11Zm5.23-5.23c-2.87,3.49-1.3-5.06-5.31-8.36s-12.11-.13-9.24-3.61,8.46-3.63,12.48-.33S609.37,134.14,606.5,137.62Z"/><path class="cls-1" d="M541.08,219.45c1.83-.31,3.35-.61,4.41-.84s1.66-.37,1.66-.37-.62,0-1.7-.06-2.64,0-4.49,0c-.92,0-1.93,0-3,.1s-2.17.09-3.33.18l-3.5.23a3.86,3.86,0,0,1-2.68-.9,4,4,0,0,1-1.41-2.44c-.15-1.18-.3-2.35-.44-3.48-.3-2.29-.62-4.43-.94-6.25s-.61-3.35-.84-4.41-.38-1.67-.38-1.67,0,.63-.05,1.71,0,2.63,0,4.49.13,4,.28,6.31c0,.58.07,1.17.11,1.76l.06.89c0,.32,0,.56.09,1a5.89,5.89,0,0,0,2.13,3.81,6,6,0,0,0,4.15,1.32l.28,0,.22,0,.45-.05.89-.12,1.75-.22c1.15-.14,2.25-.31,3.3-.47S540.17,219.61,541.08,219.45Z"/><path class="cls-1" d="M548.23,210.76c0-.92,0-1.93-.1-3s-.09-2.18-.17-3.33l-.12-1.76-.06-.9,0-.45,0-.22,0-.28a5.91,5.91,0,0,0-6.24-5.17c-.4,0-.64.06-1,.09l-.89.11-1.75.23c-2.29.3-4.43.62-6.25.94s-3.35.61-4.41.84-1.66.38-1.66.38.62,0,1.7.05,2.64,0,4.49,0,4-.13,6.32-.27l3.5-.23a4,4,0,0,1,2.66.91,3.86,3.86,0,0,1,1.4,2.46c.15,1.18.3,2.35.44,3.48s.32,2.25.47,3.3.32,2,.47,2.95c.31,1.83.62,3.35.84,4.41s.38,1.66.38,1.66,0-.62,0-1.7S548.28,212.61,548.23,210.76Z"/><path class="cls-5" d="M609.08,119.67a17.49,17.49,0,0,0-27.5,19.67L535,191.15l-3.47.34a120.49,120.49,0,0,0-47-16.15l-1.13-.13L479.08,187l1.58.38a129,129,0,0,1,38.16,15.9l.2,2.08-81.92,95.5-5.71,6.66-7.71,9h0l-15.41,18-1.54,1.79h0L404,339.46l-83.12,96.91a1.47,1.47,0,0,0-.32.65L312,478.6a1.45,1.45,0,0,0,2,1.63l39.17-16.34a1.49,1.49,0,0,0,.58-.44L455.46,334.76l12.27-15.53,3.42-4.33,3.47-4.39h0l10.28-13,2.58-3.27,55.13-69.76,1.7-.17a129.21,129.21,0,0,1,22.93,34.4l.68,1.48,10.75-6.47-.32-1.08c-4.24-14.59-13.65-30.6-24.87-43l-.34-3.5,41.91-55.68a17.49,17.49,0,0,0,14-30.76ZM482.92,185l2.4-6.61A117.77,117.77,0,0,1,526.53,192l-5.38.52a3.45,3.45,0,0,0-.84.21,110.23,110.23,0,0,0-26.68-8.87c-2.24-.48-4.48-.89-6.73-1.26a126.86,126.86,0,0,1,27.13,11c1.41.8,2.76,1.67,4.1,2.57v0l.34,3.52A132.14,132.14,0,0,0,482.92,185ZM351.72,461.35l-36.28,15.14,7.9-38.51L511.52,218.59l.47,19,19-3Zm179.46-227.1-16.59.39-2.81-16.36,7.63-8.88.05.5-5.85,8.65,6.09-6.12.06.55L514,221.45l6-6,.06.61-5.59,8.27,5.83-5.85.06.66-5.47,8.09,5.7-5.72.07.71-5.35,7.91,5.77-5.79c.08.14.16.28.25.41L515.73,233l7-7.08a4,4,0,0,0,.45.16l-4.58,6.78,6.74-6.77.71-.06-4.52,6.69,6.89-6.92.66-.07-4.63,6.85,7.06-7.08.6-.06-4.73,7,7.21-7.24.55-.05-4.83,7.15,7.36-7.4.88-.08Zm44.06,18.13-6,3.64A132.18,132.18,0,0,0,547.93,224l3.53-.34h0C558,230.2,563.25,238,567.85,246c1.1,1.92,2.14,3.86,3.16,5.83A127.73,127.73,0,0,0,557.63,225c-1-1.48-2.07-2.88-3.17-4.27a3.31,3.31,0,0,0,0-.77l-.51-5.3C563.42,226,571.38,239.84,575.24,252.38Zm-22.51-50.55h0v-.1S552.73,201.79,552.73,201.83ZM549,193.18l2.62,27a.45.45,0,0,1-.1.33.48.48,0,0,1-.31.17l-27,2.62a.47.47,0,0,1-.34-.11.43.43,0,0,1-.16-.31l-2.62-27a.46.46,0,0,1,.1-.34.48.48,0,0,1,.31-.17l27-2.61a.45.45,0,0,1,.5.41Zm4.86,4.64a19.82,19.82,0,0,0-1.72-2.41l-.25-2.51a3,3,0,0,0-.06-.32A17.14,17.14,0,0,1,553.83,197.82Zm2.94-3.71A17.14,17.14,0,0,0,552,189,15.75,15.75,0,0,1,555.3,196a17.82,17.82,0,0,0-3.94-4.51,3.09,3.09,0,0,0-.71-.82,3.38,3.38,0,0,0-2.46-.76l-8.93.87,5.76-6.41A14.16,14.16,0,0,1,556.49,193C556.59,193.39,556.69,193.75,556.77,194.11Zm7.35-9.32a15.7,15.7,0,0,0-4.82-4.71,15.46,15.46,0,0,1,3.35,6.57,15.78,15.78,0,0,0-4.81-4.78,15.55,15.55,0,0,1,3.34,6.63,16.14,16.14,0,0,0-4.79-4.84,15.53,15.53,0,0,1,3.31,6.7,15.82,15.82,0,0,0-4.77-4.9,13.91,13.91,0,0,1,1.18,1.59,16.78,16.78,0,0,0-8.82-5.24l5.54-6.16A14.08,14.08,0,0,1,563.89,184C564,184.26,564.05,184.52,564.12,184.79Zm5.89-7.43a15.5,15.5,0,0,0-4.88-4.44,15.16,15.16,0,0,1,3.41,6.3,15.64,15.64,0,0,0-4.86-4.51,15.18,15.18,0,0,1,3.38,6.37,15.46,15.46,0,0,0-4.84-4.58,13.75,13.75,0,0,1,1.21,1.55,16.87,16.87,0,0,0-8.34-4.92l4.8-5.33a14.15,14.15,0,0,1,8.17,4.28,11.9,11.9,0,0,0-1.47-1A15.15,15.15,0,0,1,570,177.36Zm5.9-7.43a15.33,15.33,0,0,0-4.94-4.18,14.94,14.94,0,0,1,3.46,6,15.34,15.34,0,0,0-4.92-4.24,14.91,14.91,0,0,1,3.45,6.1c-.25-.32-.51-.64-.78-1a16.68,16.68,0,0,0-10-7.4l4.16-4.63a14.21,14.21,0,0,1,8.32,4.68,14.12,14.12,0,0,0-2.2-1.39A14.75,14.75,0,0,1,575.91,169.93Zm5.9-7.44a15.19,15.19,0,0,0-5-3.9,14.9,14.9,0,0,1,3.54,5.76,15.35,15.35,0,0,0-5-4,14.76,14.76,0,0,1,3.52,5.83l-.38-.45a16.67,16.67,0,0,0-9.94-7.57l3.61-4a14.6,14.6,0,0,1,6.39,2.92A15.06,15.06,0,0,1,581.81,162.49Zm4.43-5.59a15.2,15.2,0,0,0-5.07-3.68,14.72,14.72,0,0,1,3.6,5.54,16.79,16.79,0,0,0-2.84-2.49,16.74,16.74,0,0,0-7.56-4.57l3.13-3.48a14,14,0,0,1,8.46,5.21,13.84,13.84,0,0,0-3.33-2A14.6,14.6,0,0,1,586.24,156.9Zm2.79-4.12a16.63,16.63,0,0,0-9.32-7l3.24-3.59a17.3,17.3,0,0,0,3.87,4.53,18.19,18.19,0,0,0,2,1.41,15.8,15.8,0,0,1,1.82,3.17,15.47,15.47,0,0,0-5.1-3.44A14.56,14.56,0,0,1,589,152.78Zm20.2-10.31a14.61,14.61,0,1,1-2-20.56A14.63,14.63,0,0,1,609.23,142.47Z"/><path class="cls-4" d="M381.71,199.69l.34-3.52v0c1.34-.9,2.69-1.77,4.1-2.57a126.86,126.86,0,0,1,27.13-11c-2.25.37-4.49.78-6.73,1.26a110.23,110.23,0,0,0-26.68,8.87,3.45,3.45,0,0,0-.84-.21l-5.38-.52a117.77,117.77,0,0,1,41.21-13.61l2.4,6.61A132.14,132.14,0,0,0,381.71,199.69Z"/><polygon class="cls-4" points="369.24 234.55 388.19 237.57 388.66 218.59 576.84 437.98 584.74 476.49 548.46 461.35 369.24 234.55"/><path class="cls-4" d="M361.58,224.86l.88.08,7.36,7.4L365,225.19l.55.05,7.21,7.24-4.73-7,.6.06,7.05,7.08-4.62-6.85.66.07,6.89,6.92-4.53-6.69.72.06,6.74,6.77-4.59-6.78a3.57,3.57,0,0,0,.46-.16l7.05,7.08-5.59-8.28a3.38,3.38,0,0,0,.24-.41l5.78,5.79-5.35-7.91.07-.71,5.7,5.72-5.47-8.09.06-.66,5.83,5.85-5.6-8.27.06-.61,6,6L380.42,213l.06-.55,6.09,6.12-5.85-8.65,0-.5,7.63,8.88-2.81,16.36L369,234.25Z"/><path class="cls-4" d="M346.21,214.64l-.51,5.3a3.31,3.31,0,0,0,0,.77c-1.1,1.39-2.18,2.79-3.18,4.27a127.21,127.21,0,0,0-13.37,26.85c1-2,2.06-3.91,3.16-5.83,4.6-8,9.84-15.8,16.36-22.4h0l3.53.34A131.89,131.89,0,0,0,331,256l-6-3.64C328.8,239.84,336.76,226,346.21,214.64Z"/><path class="cls-4" d="M347.46,201.73v.1h0S347.46,201.76,347.46,201.73Z"/><path class="cls-4" d="M351.37,192.87a.45.45,0,0,1,.34-.1l27,2.61a.48.48,0,0,1,.31.17.46.46,0,0,1,.1.34l-2.62,27a.43.43,0,0,1-.16.31.49.49,0,0,1-.34.11l-27-2.62a.48.48,0,0,1-.31-.17.45.45,0,0,1-.1-.33l2.62-27A.45.45,0,0,1,351.37,192.87Z"/><path class="cls-4" d="M348.38,192.58a3,3,0,0,0-.06.32l-.25,2.51a18.79,18.79,0,0,0-1.72,2.41A17.14,17.14,0,0,1,348.38,192.58Z"/><path class="cls-4" d="M343.69,193a14.14,14.14,0,0,1,11.46-8.71l5.77,6.41-8.93-.87a3.36,3.36,0,0,0-2.46.76,3.09,3.09,0,0,0-.71.82,17.82,17.82,0,0,0-3.94,4.51,15.75,15.75,0,0,1,3.29-6.92,17.14,17.14,0,0,0-4.76,5.07C343.49,193.75,343.58,193.39,343.69,193Z"/><path class="cls-4" d="M336.29,184a14.08,14.08,0,0,1,11.06-8.34l5.54,6.16a16.78,16.78,0,0,0-8.82,5.24,12.82,12.82,0,0,1,1.18-1.59,16,16,0,0,0-4.78,4.9,15.66,15.66,0,0,1,3.32-6.7A16,16,0,0,0,339,188.5a15.55,15.55,0,0,1,3.34-6.63,15.78,15.78,0,0,0-4.81,4.78,15.46,15.46,0,0,1,3.35-6.57,15.7,15.7,0,0,0-4.82,4.71C336.13,184.52,336.21,184.26,336.29,184Z"/><path class="cls-4" d="M333.59,171.13a11.9,11.9,0,0,0-1.47,1,14.12,14.12,0,0,1,8.17-4.28l4.8,5.33a16.87,16.87,0,0,0-8.34,4.92A13.75,13.75,0,0,1,338,176.5a15.6,15.6,0,0,0-4.85,4.58,15.32,15.32,0,0,1,3.39-6.37,15.64,15.64,0,0,0-4.86,4.51,15.25,15.25,0,0,1,3.4-6.3,15.57,15.57,0,0,0-4.87,4.44A15.15,15.15,0,0,1,333.59,171.13Z"/><path class="cls-4" d="M327.75,164a14.51,14.51,0,0,0-2.19,1.39,14.15,14.15,0,0,1,8.32-4.68L338,165.3a16.68,16.68,0,0,0-10,7.4c-.27.31-.53.63-.78,1a14.91,14.91,0,0,1,3.45-6.1,15.37,15.37,0,0,0-4.93,4.24,15.07,15.07,0,0,1,3.47-6,15.33,15.33,0,0,0-4.94,4.18A14.84,14.84,0,0,1,327.75,164Z"/><path class="cls-4" d="M321.64,157.09a14.6,14.6,0,0,1,6.39-2.92l3.61,4a16.64,16.64,0,0,0-9.94,7.57l-.38.45a14.76,14.76,0,0,1,3.52-5.83,15.35,15.35,0,0,0-5,4,14.79,14.79,0,0,1,3.54-5.76,15.19,15.19,0,0,0-5,3.9A14.92,14.92,0,0,1,321.64,157.09Z"/><path class="cls-4" d="M317.55,151.43a13.84,13.84,0,0,0-3.33,2,14,14,0,0,1,8.45-5.21l3.14,3.48a16.69,16.69,0,0,0-7.56,4.57,16.79,16.79,0,0,0-2.84,2.49,14.72,14.72,0,0,1,3.6-5.54,15.2,15.2,0,0,0-5.07,3.68A14.6,14.6,0,0,1,317.55,151.43Z"/><path class="cls-4" d="M314.63,147.84a15.36,15.36,0,0,0-5.1,3.44,15.8,15.8,0,0,1,1.82-3.17,19.19,19.19,0,0,0,2-1.41,17.3,17.3,0,0,0,3.87-4.53l3.24,3.59a16.63,16.63,0,0,0-9.32,7A14.56,14.56,0,0,1,314.63,147.84Z"/><path class="cls-4" d="M292.94,121.91a14.61,14.61,0,1,1-2,20.56A14.62,14.62,0,0,1,292.94,121.91Z"/><path class="cls-1" d="M373.34,236.85l16.6,3.07h0l-.26,4.64,156.85,193a55,55,0,0,0,18.13,14.51L390,239.93l4.6.64,159.36,191a54.8,54.8,0,0,1,10.76,20.57l17.53,21.29-33-13.76-.12-.15Z"/><path class="cls-1" d="M369.4,200.42l-9.49-.92a3.33,3.33,0,0,0-2.46.75,3.37,3.37,0,0,0-1.21,2.27l-.92,9.49a3.37,3.37,0,0,0,3,3.68l9.49.92a3.38,3.38,0,0,0,3.67-3l.92-9.49a3.37,3.37,0,0,0-.75-2.46A3.31,3.31,0,0,0,369.4,200.42Zm-11.06,8.12c.06-.72.16-1.55.31-2.43.08-.46.13-.87.24-1.39a2.79,2.79,0,0,1,.95-1.56,2.75,2.75,0,0,1,1.74-.64c.49,0,.94,0,1.39,0,.89,0,1.73.08,2.44.16a21,21,0,0,1,2.39.36,21.57,21.57,0,0,1-2.37.47c-.71.11-1.54.21-2.43.28-.44,0-.92.08-1.36.1a1.54,1.54,0,0,0-.87.36,1.43,1.43,0,0,0-.52.8c-.1.4-.24.88-.36,1.3-.24.86-.5,1.66-.74,2.33a21.56,21.56,0,0,1-.92,2.24A20.84,20.84,0,0,1,358.34,208.54Z"/><path class="cls-1" d="M292.33,141.33a12.82,12.82,0,1,0,1.74-18.05A12.82,12.82,0,0,0,292.33,141.33Zm6.36,1.41s.34.06.93.11a12.12,12.12,0,0,0,2.39,0,14,14,0,0,0,1.54-.28,11.18,11.18,0,0,0,1.63-.55,11.45,11.45,0,0,0,1.63-.84c.27-.16.5-.34.76-.52l.4-.31c.1-.08.23-.21.34-.31a11.13,11.13,0,0,0,2.35-2.85,13.89,13.89,0,0,0,.74-1.57,14.71,14.71,0,0,0,.46-1.49c.1-.48.18-.92.23-1.32s.06-.76.06-1.05c0-.59,0-.94,0-.94l.08.24a4.34,4.34,0,0,1,.21.66,7.69,7.69,0,0,1,.2,1.09,9.32,9.32,0,0,1,0,1.43,9,9,0,0,1-.25,1.7,9.74,9.74,0,0,1-.64,1.83,10.19,10.19,0,0,1-1.06,1.78,10.9,10.9,0,0,1-1.46,1.58,5.22,5.22,0,0,1-.42.36l-.41.3a10.06,10.06,0,0,1-.91.59,9.93,9.93,0,0,1-1.9.84,9,9,0,0,1-1.89.42,9.18,9.18,0,0,1-1.72,0,8.68,8.68,0,0,1-2.47-.53,6.75,6.75,0,0,1-.64-.28Zm-2.94-17.42c4-3.3,9.6-3.16,12.47.33s-5.21.3-9.23,3.61-2.44,11.85-5.31,8.36S291.74,128.63,295.75,125.32Z"/><path class="cls-1" d="M359.1,219.45c-1.83-.31-3.35-.61-4.41-.84s-1.66-.37-1.66-.37.62,0,1.7-.06,2.64,0,4.49,0c.92,0,1.93,0,3,.1s2.17.09,3.32.18l3.51.23a3.82,3.82,0,0,0,2.67-.9,4,4,0,0,0,1.41-2.44c.16-1.18.31-2.35.45-3.48.3-2.29.62-4.43.94-6.25s.61-3.35.84-4.41.38-1.67.38-1.67,0,.63,0,1.71,0,2.63,0,4.49-.13,4-.28,6.31c0,.58-.08,1.17-.11,1.76l-.06.89c0,.32,0,.56-.09,1a5.89,5.89,0,0,1-2.13,3.81,6,6,0,0,1-4.15,1.32l-.28,0-.23,0-.45-.05-.88-.12-1.75-.22c-1.15-.14-2.25-.31-3.3-.47S360,219.61,359.1,219.45Z"/><path class="cls-1" d="M351.94,210.76c0-.92.05-1.93.11-3s.08-2.18.17-3.33l.12-1.76c0-.3,0-.6.05-.9l0-.45,0-.22,0-.28a5.91,5.91,0,0,1,6.24-5.17c.4,0,.63.06.95.09l.89.11,1.75.23c2.29.3,4.42.62,6.25.94s3.34.61,4.41.84,1.66.38,1.66.38-.62,0-1.71.05-2.63,0-4.48,0-4-.13-6.32-.27l-3.5-.23a4,4,0,0,0-2.66.91,3.86,3.86,0,0,0-1.4,2.46c-.15,1.18-.3,2.35-.45,3.48s-.31,2.25-.46,3.3-.32,2-.48,2.95c-.3,1.83-.61,3.35-.83,4.41S352,217,352,217s0-.62-.05-1.7S351.89,212.61,351.94,210.76Z"/><path class="cls-5" d="M288.71,144.31a17.5,17.5,0,0,0,16.42,6.12L347,206.11l-.34,3.5c-11.22,12.42-20.63,28.43-24.87,43l-.32,1.08,10.75,6.47.68-1.48a129,129,0,0,1,22.93-34.4l1.7.17,55.12,69.76,2.59,3.27,10.28,13h0L429,314.9l3.42,4.33,12.27,15.53L546.41,463.45a1.49,1.49,0,0,0,.58.44l39.17,16.34a1.45,1.45,0,0,0,2-1.63L579.61,437a1.47,1.47,0,0,0-.32-.65l-83.13-96.91-2.71-3.17h0l-1.54-1.79-15.41-18h0l-7.71-9-5.71-6.66-81.92-95.5.2-2.08a128.86,128.86,0,0,1,38.16-15.9l1.58-.38-4.3-11.82-1.14.13a120.5,120.5,0,0,0-47,16.15l-3.48-.34-46.6-51.81a17.5,17.5,0,1,0-29.89,5Zm93,55.38.34-3.52v0c1.34-.9,2.69-1.77,4.1-2.57a126.86,126.86,0,0,1,27.13-11c-2.25.37-4.49.78-6.73,1.26a110.23,110.23,0,0,0-26.68,8.87,3.45,3.45,0,0,0-.84-.21l-5.38-.52a117.77,117.77,0,0,1,41.21-13.61l2.4,6.61A132.14,132.14,0,0,0,381.71,199.69Zm-12.47,34.86,18.94,3,.48-19L576.84,438l7.9,38.51-36.28-15.14Zm-7.66-9.69.88.08,7.36,7.4L365,225.19l.55.05,7.21,7.24-4.73-7,.6.06,7.05,7.08-4.62-6.85.66.07,6.89,6.92-4.53-6.69.72.06,6.74,6.77-4.59-6.78a3.57,3.57,0,0,0,.46-.16l7.05,7.08-5.59-8.28a3.38,3.38,0,0,0,.24-.41l5.78,5.79-5.35-7.91.07-.71,5.7,5.72-5.47-8.09.06-.66,5.83,5.85-5.6-8.27.06-.61,6,6L380.42,213l.06-.55,6.09,6.12-5.85-8.65,0-.5,7.63,8.88-2.81,16.36L369,234.25Zm-15.37-10.22-.51,5.3a3.31,3.31,0,0,0,0,.77c-1.1,1.39-2.18,2.79-3.18,4.27a127.21,127.21,0,0,0-13.37,26.85c1-2,2.06-3.91,3.16-5.83,4.6-8,9.84-15.8,16.36-22.4h0l3.53.34A131.89,131.89,0,0,0,331,256l-6-3.64C328.8,239.84,336.76,226,346.21,214.64Zm1.25-12.91v.1h0S347.46,201.76,347.46,201.73Zm3.91-8.86a.45.45,0,0,1,.34-.1l27,2.61a.48.48,0,0,1,.31.17.46.46,0,0,1,.1.34l-2.62,27a.43.43,0,0,1-.16.31.49.49,0,0,1-.34.11l-27-2.62a.48.48,0,0,1-.31-.17.45.45,0,0,1-.1-.33l2.62-27A.45.45,0,0,1,351.37,192.87Zm-3-.29a3,3,0,0,0-.06.32l-.25,2.51a18.79,18.79,0,0,0-1.72,2.41A17.14,17.14,0,0,1,348.38,192.58Zm-4.69.46a14.14,14.14,0,0,1,11.46-8.71l5.77,6.41-8.93-.87a3.36,3.36,0,0,0-2.46.76,3.09,3.09,0,0,0-.71.82,17.82,17.82,0,0,0-3.94,4.51,15.75,15.75,0,0,1,3.29-6.92,17.14,17.14,0,0,0-4.76,5.07C343.49,193.75,343.58,193.39,343.69,193Zm-7.4-9a14.08,14.08,0,0,1,11.06-8.34l5.54,6.16a16.78,16.78,0,0,0-8.82,5.24,12.82,12.82,0,0,1,1.18-1.59,16,16,0,0,0-4.78,4.9,15.66,15.66,0,0,1,3.32-6.7A16,16,0,0,0,339,188.5a15.55,15.55,0,0,1,3.34-6.63,15.78,15.78,0,0,0-4.81,4.78,15.46,15.46,0,0,1,3.35-6.57,15.7,15.7,0,0,0-4.82,4.71C336.13,184.52,336.21,184.26,336.29,184Zm-2.7-12.86a11.9,11.9,0,0,0-1.47,1,14.12,14.12,0,0,1,8.17-4.28l4.8,5.33a16.87,16.87,0,0,0-8.34,4.92A13.75,13.75,0,0,1,338,176.5a15.6,15.6,0,0,0-4.85,4.58,15.32,15.32,0,0,1,3.39-6.37,15.64,15.64,0,0,0-4.86,4.51,15.25,15.25,0,0,1,3.4-6.3,15.57,15.57,0,0,0-4.87,4.44A15.15,15.15,0,0,1,333.59,171.13ZM327.75,164a14.51,14.51,0,0,0-2.19,1.39,14.15,14.15,0,0,1,8.32-4.68L338,165.3a16.68,16.68,0,0,0-10,7.4c-.27.31-.53.63-.78,1a14.91,14.91,0,0,1,3.45-6.1,15.37,15.37,0,0,0-4.93,4.24,15.07,15.07,0,0,1,3.47-6,15.33,15.33,0,0,0-4.94,4.18A14.84,14.84,0,0,1,327.75,164Zm-6.11-6.87a14.6,14.6,0,0,1,6.39-2.92l3.61,4a16.64,16.64,0,0,0-9.94,7.57l-.38.45a14.76,14.76,0,0,1,3.52-5.83,15.35,15.35,0,0,0-5,4,14.79,14.79,0,0,1,3.54-5.76,15.19,15.19,0,0,0-5,3.9A14.92,14.92,0,0,1,321.64,157.09Zm-4.09-5.66a13.84,13.84,0,0,0-3.33,2,14,14,0,0,1,8.45-5.21l3.14,3.48a16.69,16.69,0,0,0-7.56,4.57,16.79,16.79,0,0,0-2.84,2.49,14.72,14.72,0,0,1,3.6-5.54,15.2,15.2,0,0,0-5.07,3.68A14.6,14.6,0,0,1,317.55,151.43Zm-2.92-3.59a15.36,15.36,0,0,0-5.1,3.44,15.8,15.8,0,0,1,1.82-3.17,19.19,19.19,0,0,0,2-1.41,17.3,17.3,0,0,0,3.87-4.53l3.24,3.59a16.63,16.63,0,0,0-9.32,7A14.56,14.56,0,0,1,314.63,147.84Zm-21.69-25.93a14.61,14.61,0,1,1-2,20.56A14.62,14.62,0,0,1,292.94,121.91Z"/><polygon class="cls-1" points="371.19 412.56 351.88 293.97 450 245.7 548.12 293.97 528.81 412.56 450 462.01 371.19 412.56"/><polygon class="cls-6" points="450 462.01 528.81 412.56 548.12 293.97 450 245.7 450 462.01"/><path class="cls-4" d="M432.33,335.44q0,9.3-7.17,27.13-2.13,5.21-11.94,26.62l-8.28-27.56a1.44,1.44,0,0,0-.85.6,52.08,52.08,0,0,0-3.76,7.68c-2.22,5.35-3.38,8.1-3.5,8.28q-1.62,3.31-4.78,10.06c-.34-.79-1.45-4.41-3.32-10.83q-2.4-8.21-7-24.58l-3.92-15q-2.82-10.75-4.61-13.91a5.25,5.25,0,0,0-1.88-1.79,7.77,7.77,0,0,1-2.05-1.37H387c-2,1.15-2.95,2.43-2.95,3.86q0,.76,5.52,19.69,6,21.07,6.55,23.3l.77.85c.79-.57,2-2.85,3.67-6.83,1.71-3.81,2.57-6.22,2.57-7.25q0-.76-4.14-15.1T394.32,324a5,5,0,0,0-2.14-1.79c-1.05-.54-1.58-1-1.58-1.32q10.41-.35,11.61-.35a56.69,56.69,0,0,1,6.48.26q-3.31,1.2-3.32,2.82,0,2,5.88,22.48t7.26,23.59h.17a.48.48,0,0,0,.42-.25q2.31-3.76,4.87-12.89T426.53,343a26.41,26.41,0,0,0-2.48-11.51q-3-6.15-8.36-7.52l5.38-2.73a40.9,40.9,0,0,1,4.86-2.21c.57,0,1.39.82,2.47,2.47A24.72,24.72,0,0,1,432.33,335.44Z"/><path class="cls-4" d="M483.35,365.64q0,16.56-16,27.14,9.89-12.72,9.89-21.68,0-7.25-8.07-16.38-8.33-9.3-15.53-9.3a5.13,5.13,0,0,0-3.31,1.15,3.64,3.64,0,0,0-1.41,2.95v23q-.09,9.48,1.19,11.69a3.79,3.79,0,0,0,1.79,1.45c.8.34,1.22.66,1.28.94H434.37V386q3.51-1.54,4.36-3.75a26.94,26.94,0,0,0,.51-6V327.5c0-1.87-.33-3.15-1-3.84l-2.95-2.22.17-.51h18.18v.94q-4.35.76-4.35,8.71v4.52c.05,1.82.05,3.29,0,4.43a1.67,1.67,0,0,0,1,.52q3.24,0,9.21-5.92t6-9.05a2.21,2.21,0,0,0-1.15-2.08c-.77-.42-1.55-.8-2.35-1.14v-.93l17.92-.25a32.88,32.88,0,0,0-7.34,6q-3.24,3.59-6.57,7.08a62.64,62.64,0,0,0-6.57,5.8,13.18,13.18,0,0,1,6.1,2.05,20.77,20.77,0,0,0,4.65,2.22,55,55,0,0,1,6.57,5.89,21.59,21.59,0,0,1,4.61,7.59C481.61,358,482.27,360.75,483.35,365.64Z"/><path class="cls-4" d="M526.86,372.81q0,1.53-7.59,16.38h-1.11l.6-.34a7.46,7.46,0,0,0-1.62-1.79c-1.6-.62-7.23-1-16.89-1.11H485.48c3.59-1.2,5.43-4.81,5.55-10.84q.68-38.3.68-39.25,0-11.94-2.6-13.39a9.74,9.74,0,0,1-2.43-1.79h19.2q-4.45,2.81-4.54,10.07l-.59,40.86c-.05,3.65.35,6.32,1.2,8,1.19,2.33,3.45,3.49,6.8,3.49a18.47,18.47,0,0,0,10.38-3.49,27.45,27.45,0,0,0,7.73-7.86Z"/><path class="cls-4" d="M765.19,715.78l3.32-1.21a58.93,58.93,0,0,1,8,20.24l-1.93-1.9a1.67,1.67,0,0,0-.35-.26,55.8,55.8,0,0,0-5.19-13.12c-.54-1-1.11-2-1.69-3a63.82,63.82,0,0,1,4.51,14c.15.8.25,1.6.33,2.4h0L771,734.19A65.89,65.89,0,0,0,765.19,715.78Z"/><polygon class="cls-4" points="616.63 754.4 599.11 745.32 616.47 735.95 761.48 737.61 754.34 743.91 761.61 750.22 616.63 754.4"/><path class="cls-4" d="M761.8,750.22,756.3,744l5.39-6.35,5.87.07-.18.18-5.2.54,4.31.37-.19.2-5.1.53,4.22.36-.21.22-5,.52,4.13.35-.23.24-4.88.5,4,.35-.25.26-4.77.49,4.09.35a2.09,2.09,0,0,0-.08.23l-5,.52,5,.43a2,2,0,0,0,.08.22l-4.08.43,4.77.41.26.25-4,.42,4.88.42.24.23-4.13.43,5,.43.22.21-4.22.44,5.11.44.2.19-4.31.45,5.22.45.31.31Z"/><path class="cls-4" d="M769,773l-3.35-1.15a66.25,66.25,0,0,0,5.48-18.52l1.26,1.25h0a54.43,54.43,0,0,1-3.34,13.51c-.38,1-.8,2.07-1.23,3.09a63.8,63.8,0,0,0,6-13.79c.25-.86.44-1.73.62-2.6a1.76,1.76,0,0,0,.3-.24l1.87-1.91A58.07,58.07,0,0,1,769,773Z"/><path class="cls-4" d="M781.21,748.06h0l0,0Z"/><path class="cls-4" d="M783.33,743.83l-9.56,9.72a.25.25,0,0,1-.16.06.2.2,0,0,1-.16-.06L763.73,744a.21.21,0,0,1-.07-.16.26.26,0,0,1,.06-.16l9.56-9.72a.22.22,0,0,1,.16-.07.25.25,0,0,1,.16.06l9.72,9.56a.23.23,0,0,1,.07.16A.22.22,0,0,1,783.33,743.83Z"/><path class="cls-4" d="M783.11,747.19a9,9,0,0,0,.37-1.44l.89-.9a1.13,1.13,0,0,0,.1-.13A8.53,8.53,0,0,1,783.11,747.19Z"/><path class="cls-4" d="M785.48,747.12a8.57,8.57,0,0,0,.42-3.46,8,8,0,0,1-1.6,3.5,9.06,9.06,0,0,0,.46-3,1.6,1.6,0,0,0,.09-.53,1.67,1.67,0,0,0-.5-1.19l-3.22-3.16,4.33.15a7.11,7.11,0,0,1,.34,7.22A3.65,3.65,0,0,1,785.48,747.12Z"/><path class="cls-4" d="M791.44,747a8,8,0,0,0,.25-3.37,7.8,7.8,0,0,1-1.44,3.4,7.92,7.92,0,0,0,.28-3.39,7.65,7.65,0,0,1-1.47,3.42,8,8,0,0,0,.32-3.4,7.86,7.86,0,0,1-1.51,3.43,8,8,0,0,0,.35-3.41,6.13,6.13,0,0,1-.24,1,8.4,8.4,0,0,0-.82-5.08l4.15.15a7.05,7.05,0,0,1,.36,6.94Z"/><path class="cls-4" d="M796.19,746.82a7.86,7.86,0,0,0,.14-3.31,7.57,7.57,0,0,1-1.33,3.34,7.9,7.9,0,0,0,.17-3.32,7.65,7.65,0,0,1-1.36,3.35,7.68,7.68,0,0,0,.2-3.34,6,6,0,0,1-.21,1,8.46,8.46,0,0,0-.79-4.79l3.6.13a7.1,7.1,0,0,1,1,4.51,8.62,8.62,0,0,0-.11-.87A7.61,7.61,0,0,1,796.19,746.82Z"/><path class="cls-4" d="M801,746.69a7.74,7.74,0,0,0,0-3.25,7.48,7.48,0,0,1-1.2,3.28,7.78,7.78,0,0,0,0-3.26,7.48,7.48,0,0,1-1.23,3.3c0-.2.08-.41.11-.61a8.37,8.37,0,0,0-.39-6.25l3.12.11a7.07,7.07,0,0,1,.88,4.71,6.34,6.34,0,0,0-.17-1.29A7.41,7.41,0,0,1,801,746.69Z"/><path class="cls-4" d="M805.71,746.56a7.59,7.59,0,0,0-.11-3.18,7.51,7.51,0,0,1-1.08,3.22,7.67,7.67,0,0,0-.08-3.2,7.42,7.42,0,0,1-1.11,3.23,2.93,2.93,0,0,0,0-.29,8.36,8.36,0,0,0-.29-6.27l2.71.1a7.16,7.16,0,0,1,.93,3.4A7.24,7.24,0,0,1,805.71,746.56Z"/><path class="cls-4" d="M809.29,746.47a7.58,7.58,0,0,0-.22-3.14,7.34,7.34,0,0,1-1,3.17,9.29,9.29,0,0,0,0-1.9,8.42,8.42,0,0,0-.68-4.37l2.34.08a7,7,0,0,1,.72,4.93,6.75,6.75,0,0,0-.3-1.93A7.3,7.3,0,0,1,809.29,746.47Z"/><path class="cls-4" d="M811.77,746.21a8.34,8.34,0,0,0-.3-5.84l2.42.08a8.78,8.78,0,0,0-.49,2.95,8.27,8.27,0,0,0,.11,1.23,8.29,8.29,0,0,1-.64,1.72,7.62,7.62,0,0,0-.32-3.07A7.26,7.26,0,0,1,811.77,746.21Z"/><path class="cls-4" d="M822.25,750.65a7.33,7.33,0,1,1,7.26-7.39A7.33,7.33,0,0,1,822.25,750.65Z"/><path class="cls-1" d="M759.4,749.39l-6.53-5.4h0l-1.7,1.6-124.79,1.89a27.45,27.45,0,0,1-11.42-2.3L752.86,744l-1.73-1.56-124.8.26A27.67,27.67,0,0,0,615,745.18l-13.84.12L617,753.55h.09Z"/><path class="cls-1" d="M773.48,738.68a1.67,1.67,0,0,0-1.19.5l-3.35,3.41a1.69,1.69,0,0,0-.49,1.2A1.73,1.73,0,0,0,769,745l3.41,3.35a1.68,1.68,0,0,0,2.39,0l3.35-3.41a1.69,1.69,0,0,0,.49-1.2,1.73,1.73,0,0,0-.51-1.19l-3.41-3.35A1.64,1.64,0,0,0,773.48,738.68Zm.75,8.17s.2-.45.56-1.07c.18-.31.41-.67.66-1l.39-.56a.75.75,0,0,0,.14-.45.72.72,0,0,0-.15-.45l-.4-.56c-.26-.37-.49-.72-.67-1a9.63,9.63,0,0,1-.58-1.06,11.13,11.13,0,0,1,.9.8c.26.25.56.56.85.89.15.17.31.33.46.52a1.46,1.46,0,0,1,.32.88,1.41,1.41,0,0,1-.3.87c-.16.21-.3.36-.45.54-.29.34-.58.65-.84.9A9,9,0,0,1,774.23,746.85Z"/><path class="cls-1" d="M828.62,743.27a6.44,6.44,0,1,0-6.38,6.49A6.44,6.44,0,0,0,828.62,743.27Zm-9.08,4.45c-.07,0-.19-.08-.32-.16a4.35,4.35,0,0,1-1-.78,4.87,4.87,0,0,1-.53-.68,4.37,4.37,0,0,1-.45-.86,4.47,4.47,0,0,1-.29-1c0-.17-.05-.36-.07-.54v-.25a2.61,2.61,0,0,1,0-.28,5.5,5.5,0,0,1,.14-1.07,4.78,4.78,0,0,1,.84-1.82,4.53,4.53,0,0,1,.57-.64,4.3,4.3,0,0,1,.57-.45,3.08,3.08,0,0,1,.48-.27,1.82,1.82,0,0,1,.32-.14l.12,0s-.14.1-.37.3-.23.22-.38.36-.28.32-.43.52a7.57,7.57,0,0,0-.43.66,8,8,0,0,0-.36.78,5.55,5.55,0,0,0-.34,1.83c0,.07,0,.16,0,.23v.25a3.59,3.59,0,0,0,0,.46,5.33,5.33,0,0,0,.19.9,6.35,6.35,0,0,0,.32.8,7.38,7.38,0,0,0,.39.69,5.78,5.78,0,0,0,.76.92l.34.33Zm3.69.32c-2.26,0,1.53-2.13,1.51-4.74s-3.86-4.69-1.59-4.71,4.12,2.08,4.14,4.69S825.5,748,823.23,748Z"/><path class="cls-1" d="M770.68,749.26c.71.6,1.31,1.09,1.74,1.42s.69.52.69.52-.19-.25-.54-.67-.83-1-1.45-1.72c-.31-.35-.64-.73-1-1.11s-.74-.81-1.14-1.23l-1.22-1.27a2,2,0,0,1,0-2.65l1.19-1.29c.79-.86,1.5-1.67,2.1-2.38s1.09-1.31,1.43-1.74l.52-.68s-.26.18-.68.53-1,.83-1.72,1.45-1.5,1.34-2.34,2.14l-.63.61-.33.31-.34.35a3,3,0,0,0-.78,2,3,3,0,0,0,.83,2l.1.11.08.08.17.15.33.31.64.6,1.25,1.12C769.94,748.63,770.33,749,770.68,749.26Z"/><path class="cls-1" d="M776.33,749.21l1.11-1q.6-.54,1.23-1.14l.64-.61.32-.31.16-.16.08-.08.1-.11a3,3,0,0,0,0-4.07l-.35-.33-.33-.31-.65-.6c-.85-.78-1.66-1.5-2.37-2.1s-1.32-1.09-1.74-1.42-.69-.52-.69-.52l.53.67c.35.43.84,1,1.46,1.72s1.34,1.5,2.14,2.34l1.22,1.27a2,2,0,0,1,.5,1.32,1.91,1.91,0,0,1-.49,1.33l-1.2,1.29-1.12,1.25c-.35.39-.68.78-1,1.13-.6.71-1.09,1.31-1.42,1.74s-.52.68-.52.68.25-.18.67-.53S775.63,749.82,776.33,749.21Z"/><path class="cls-5" d="M831,743.25A8.78,8.78,0,0,0,814.54,739l-34.94-1.23-1.25-1.23a60.42,60.42,0,0,0-8.94-23.27l-.31-.48L763.17,715l.36.73a64.83,64.83,0,0,1,6.18,19.81l-.73.74-63.13-.72-4.4-.06-5.94-.06h0l-11.87-.14h-1.19l-2.09,0-64.06-.73a.86.86,0,0,0-.36.08L597.2,744.69a.75.75,0,0,0-.38.65.73.73,0,0,0,.39.64l18.91,9.8a.9.9,0,0,0,.36.08l82.26-2.37,9.93-.28,2.77-.08,2.8-.08h0l8.32-.24,2.09-.06,44.6-1.29.61.6A65,65,0,0,1,764,772l-.35.73,6,2,.31-.46c4.25-6.34,7.37-15.12,8.53-23.44l1.24-1.25,34.92-1.83A8.78,8.78,0,0,0,831,743.25Zm-65.78-27.47,3.32-1.21a58.93,58.93,0,0,1,8,20.24l-1.93-1.9a1.67,1.67,0,0,0-.35-.26,55.8,55.8,0,0,0-5.19-13.12c-.54-1-1.11-2-1.69-3a63.82,63.82,0,0,1,4.51,14c.15.8.25,1.6.33,2.4h0L771,734.19A65.89,65.89,0,0,0,765.19,715.78ZM616.63,754.4l-17.52-9.08L616.47,736l145,1.66-7.14,6.3,7.27,6.31Zm145.17-4.18L756.3,744l5.39-6.35,5.87.07-.18.18-5.2.54,4.31.37-.19.2-5.1.53,4.22.36-.21.22-5,.52,4.13.35-.23.24-4.88.5,4,.35-.25.26-4.77.49,4.09.35a2.09,2.09,0,0,0-.08.23l-5,.52,5,.43a2,2,0,0,0,.08.22l-4.08.43,4.77.41.26.25-4,.42,4.88.42.24.23-4.13.43,5,.43.22.21-4.22.44,5.11.44.2.19-4.31.45,5.22.45.31.31ZM769,773l-3.35-1.15a66.25,66.25,0,0,0,5.48-18.52l1.26,1.25h0a54.43,54.43,0,0,1-3.34,13.51c-.38,1-.8,2.07-1.23,3.09a63.8,63.8,0,0,0,6-13.79c.25-.86.44-1.73.62-2.6a1.76,1.76,0,0,0,.3-.24l1.87-1.91A58.07,58.07,0,0,1,769,773Zm12.18-25h0l0,0Zm2.12-4.23-9.56,9.72a.25.25,0,0,1-.16.06.2.2,0,0,1-.16-.06L763.73,744a.21.21,0,0,1-.07-.16.26.26,0,0,1,.06-.16l9.56-9.72a.22.22,0,0,1,.16-.07.25.25,0,0,1,.16.06l9.72,9.56a.23.23,0,0,1,.07.16A.22.22,0,0,1,783.33,743.83Zm-.22,3.36a9,9,0,0,0,.37-1.44l.89-.9a1.13,1.13,0,0,0,.1-.13A8.53,8.53,0,0,1,783.11,747.19Zm2.37-.07a8.57,8.57,0,0,0,.42-3.46,8,8,0,0,1-1.6,3.5,9.06,9.06,0,0,0,.46-3,1.6,1.6,0,0,0,.09-.53,1.67,1.67,0,0,0-.5-1.19l-3.22-3.16,4.33.15a7.11,7.11,0,0,1,.34,7.22A3.65,3.65,0,0,1,785.48,747.12Zm6-.17a8,8,0,0,0,.25-3.37,7.8,7.8,0,0,1-1.44,3.4,7.92,7.92,0,0,0,.28-3.39,7.65,7.65,0,0,1-1.47,3.42,8,8,0,0,0,.32-3.4,7.86,7.86,0,0,1-1.51,3.43,8,8,0,0,0,.35-3.41,6.13,6.13,0,0,1-.24,1,8.4,8.4,0,0,0-.82-5.08l4.15.15a7.05,7.05,0,0,1,.36,6.94Zm4.75-.13a7.86,7.86,0,0,0,.14-3.31,7.57,7.57,0,0,1-1.33,3.34,7.9,7.9,0,0,0,.17-3.32,7.65,7.65,0,0,1-1.36,3.35,7.68,7.68,0,0,0,.2-3.34,6,6,0,0,1-.21,1,8.46,8.46,0,0,0-.79-4.79l3.6.13a7.1,7.1,0,0,1,1,4.51,8.62,8.62,0,0,0-.11-.87A7.61,7.61,0,0,1,796.19,746.82Zm4.76-.13a7.74,7.74,0,0,0,0-3.25,7.48,7.48,0,0,1-1.2,3.28,7.78,7.78,0,0,0,0-3.26,7.48,7.48,0,0,1-1.23,3.3c0-.2.08-.41.11-.61a8.37,8.37,0,0,0-.39-6.25l3.12.11a7.07,7.07,0,0,1,.88,4.71,6.34,6.34,0,0,0-.17-1.29A7.41,7.41,0,0,1,801,746.69Zm4.76-.13a7.59,7.59,0,0,0-.11-3.18,7.51,7.51,0,0,1-1.08,3.22,7.67,7.67,0,0,0-.08-3.2,7.42,7.42,0,0,1-1.11,3.23,2.93,2.93,0,0,0,0-.29,8.36,8.36,0,0,0-.29-6.27l2.71.1a7.16,7.16,0,0,1,.93,3.4A7.24,7.24,0,0,1,805.71,746.56Zm3.58-.09a7.58,7.58,0,0,0-.22-3.14,7.34,7.34,0,0,1-1,3.17,9.29,9.29,0,0,0,0-1.9,8.42,8.42,0,0,0-.68-4.37l2.34.08a7,7,0,0,1,.72,4.93,6.75,6.75,0,0,0-.3-1.93A7.3,7.3,0,0,1,809.29,746.47Zm2.48-.26a8.34,8.34,0,0,0-.3-5.84l2.42.08a8.78,8.78,0,0,0-.49,2.95,8.27,8.27,0,0,0,.11,1.23,8.29,8.29,0,0,1-.64,1.72,7.62,7.62,0,0,0-.32-3.07A7.26,7.26,0,0,1,811.77,746.21Zm10.48,4.44a7.33,7.33,0,1,1,7.26-7.39A7.33,7.33,0,0,1,822.25,750.65Z"/><path class="cls-4" d="M129,734.19l-1.25-1.26h0c.08-.8.18-1.6.33-2.4a63.82,63.82,0,0,1,4.51-14c-.58,1-1.15,2-1.69,3a55.8,55.8,0,0,0-5.19,13.12,1.67,1.67,0,0,0-.35.26l-1.93,1.9a58.93,58.93,0,0,1,8.05-20.24l3.32,1.21A65.89,65.89,0,0,0,129,734.19Z"/><polygon class="cls-4" points="138.39 750.22 145.66 743.91 138.52 737.61 283.53 735.95 300.89 745.32 283.37 754.4 138.39 750.22"/><path class="cls-4" d="M132.2,750.05l.31-.31,5.22-.45-4.31-.45.2-.19,5.11-.44-4.22-.44.22-.21,5-.43-4.13-.43.24-.23,4.88-.42-4-.42.26-.25,4.77-.41-4.08-.43a2,2,0,0,0,.08-.22l5-.43-5-.52a2.09,2.09,0,0,0-.08-.23l4.09-.35L137,742.3l-.25-.26,4-.35-4.88-.5-.23-.24,4.13-.35-5-.52-.21-.22,4.22-.36-5.1-.53-.19-.2,4.31-.37-5.2-.54-.18-.18,5.87-.07L143.7,744l-5.5,6.26Z"/><path class="cls-4" d="M123.32,752.66l1.87,1.91a1.76,1.76,0,0,0,.3.24c.18.87.37,1.74.62,2.6a63.8,63.8,0,0,0,6,13.79c-.43-1-.85-2.05-1.23-3.09a54.43,54.43,0,0,1-3.34-13.51h0l1.26-1.25a66.25,66.25,0,0,0,5.48,18.52L131,773A58.07,58.07,0,0,1,123.32,752.66Z"/><path class="cls-4" d="M118.75,748l0,0h0Z"/><path class="cls-4" d="M116.61,743.66a.23.23,0,0,1,.07-.16l9.72-9.56a.25.25,0,0,1,.16-.06.22.22,0,0,1,.16.07l9.56,9.72a.26.26,0,0,1,.06.16.21.21,0,0,1-.07.16l-9.72,9.56a.2.2,0,0,1-.16.06.25.25,0,0,1-.16-.06l-9.56-9.72A.22.22,0,0,1,116.61,743.66Z"/><path class="cls-4" d="M115.53,744.72a1.13,1.13,0,0,0,.1.13l.89.9a9,9,0,0,0,.37,1.44A8.53,8.53,0,0,1,115.53,744.72Z"/><path class="cls-4" d="M114.2,746.67a7.11,7.11,0,0,1,.34-7.22l4.33-.15-3.22,3.16a1.67,1.67,0,0,0-.5,1.19,1.6,1.6,0,0,0,.09.53,9.06,9.06,0,0,0,.46,3,8,8,0,0,1-1.6-3.5,8.57,8.57,0,0,0,.42,3.46A3.65,3.65,0,0,1,114.2,746.67Z"/><path class="cls-4" d="M108.33,746.6a7.05,7.05,0,0,1,.36-6.94l4.15-.15a8.4,8.4,0,0,0-.82,5.08,6.13,6.13,0,0,1-.24-1,8,8,0,0,0,.35,3.41,7.86,7.86,0,0,1-1.51-3.43,8,8,0,0,0,.32,3.4,7.65,7.65,0,0,1-1.47-3.42,7.92,7.92,0,0,0,.28,3.39,7.8,7.8,0,0,1-1.44-3.4,8,8,0,0,0,.25,3.37Z"/><path class="cls-4" d="M102.51,743.49a8.62,8.62,0,0,0-.11.87,7.1,7.1,0,0,1,1-4.51l3.6-.13a8.46,8.46,0,0,0-.79,4.79,6,6,0,0,1-.21-1,7.68,7.68,0,0,0,.2,3.34,7.65,7.65,0,0,1-1.36-3.35,7.9,7.9,0,0,0,.17,3.32,7.57,7.57,0,0,1-1.33-3.34,7.86,7.86,0,0,0,.14,3.31A7.61,7.61,0,0,1,102.51,743.49Z"/><path class="cls-4" d="M97.88,743.43a6.34,6.34,0,0,0-.17,1.29,7.07,7.07,0,0,1,.88-4.71l3.12-.11a8.37,8.37,0,0,0-.39,6.25c0,.2.07.41.11.61a7.48,7.48,0,0,1-1.23-3.3,7.78,7.78,0,0,0,0,3.26,7.48,7.48,0,0,1-1.2-3.28,7.74,7.74,0,0,0,0,3.25A7.41,7.41,0,0,1,97.88,743.43Z"/><path class="cls-4" d="M93.27,743.57a7.16,7.16,0,0,1,.93-3.4l2.71-.1a8.36,8.36,0,0,0-.29,6.27,2.93,2.93,0,0,0,0,.29,7.42,7.42,0,0,1-1.11-3.23,7.67,7.67,0,0,0-.08,3.2,7.51,7.51,0,0,1-1.08-3.22,7.59,7.59,0,0,0-.11,3.18A7.24,7.24,0,0,1,93.27,743.57Z"/><path class="cls-4" d="M89.77,743.31a6.75,6.75,0,0,0-.3,1.93,7,7,0,0,1,.72-4.93l2.34-.08a8.42,8.42,0,0,0-.68,4.37,9.29,9.29,0,0,0,.05,1.9,7.34,7.34,0,0,1-1-3.17,7.58,7.58,0,0,0-.22,3.14A7.3,7.3,0,0,1,89.77,743.31Z"/><path class="cls-4" d="M87.45,743.28a7.62,7.62,0,0,0-.32,3.07,8.29,8.29,0,0,1-.64-1.72,8.27,8.27,0,0,0,.11-1.23,8.78,8.78,0,0,0-.49-2.95l2.42-.08a8.34,8.34,0,0,0-.3,5.84A7.26,7.26,0,0,1,87.45,743.28Z"/><path class="cls-4" d="M70.49,743.26a7.33,7.33,0,1,1,7.26,7.39A7.33,7.33,0,0,1,70.49,743.26Z"/><path class="cls-1" d="M140.6,749.39l6.53-5.4h0l1.7,1.6,124.79,1.89a27.45,27.45,0,0,0,11.42-2.3L147.14,744l1.73-1.56,124.8.26a27.67,27.67,0,0,1,11.38,2.49l13.84.12L283,753.55h-.09Z"/><path class="cls-1" d="M125.32,739.16l-3.41,3.35a1.73,1.73,0,0,0-.51,1.19,1.69,1.69,0,0,0,.49,1.2l3.35,3.41a1.68,1.68,0,0,0,2.39,0L131,745a1.73,1.73,0,0,0,.51-1.19,1.69,1.69,0,0,0-.49-1.2l-3.35-3.41a1.67,1.67,0,0,0-1.19-.5A1.64,1.64,0,0,0,125.32,739.16Zm-.44,6.87c-.26-.25-.55-.56-.84-.9-.15-.18-.29-.33-.45-.54a1.41,1.41,0,0,1-.3-.87,1.46,1.46,0,0,1,.32-.88c.15-.19.31-.35.46-.52.29-.33.59-.64.85-.89a11.13,11.13,0,0,1,.9-.8,9.63,9.63,0,0,1-.58,1.06c-.18.31-.41.66-.67,1l-.4.56a.72.72,0,0,0-.15.45.75.75,0,0,0,.14.45l.39.56c.25.37.48.73.66,1,.36.62.56,1.07.56,1.07A9,9,0,0,1,124.88,746Z"/><path class="cls-1" d="M77.76,749.76a6.44,6.44,0,1,0-6.38-6.49A6.44,6.44,0,0,0,77.76,749.76Zm2.59-2,.34-.33a5.78,5.78,0,0,0,.76-.92,7.38,7.38,0,0,0,.39-.69,6.35,6.35,0,0,0,.32-.8,5.33,5.33,0,0,0,.19-.9,3.59,3.59,0,0,0,.05-.46v-.25c0-.07,0-.16,0-.23a5.55,5.55,0,0,0-.34-1.83,8,8,0,0,0-.36-.78,7.57,7.57,0,0,0-.43-.66c-.15-.2-.3-.37-.43-.52s-.27-.27-.38-.36-.37-.3-.37-.3l.12,0a1.82,1.82,0,0,1,.32.14,3.08,3.08,0,0,1,.48.27,4.3,4.3,0,0,1,.57.45,4.53,4.53,0,0,1,.57.64A4.78,4.78,0,0,1,83,742.1a5.5,5.5,0,0,1,.14,1.07,2.61,2.61,0,0,1,0,.28v.25c0,.18,0,.37-.07.54a4.47,4.47,0,0,1-.29,1,4.37,4.37,0,0,1-.45.86,4.87,4.87,0,0,1-.53.68,4.35,4.35,0,0,1-1,.78c-.13.08-.25.12-.32.16Zm-7.64-4.49c0-2.61,1.87-4.71,4.14-4.69s-1.57,2.1-1.59,4.71S79,748.06,76.77,748,72.68,745.89,72.71,743.28Z"/><path class="cls-1" d="M129.32,749.26c-.71.6-1.31,1.09-1.74,1.42s-.69.52-.69.52.19-.25.54-.67.83-1,1.45-1.72c.31-.35.64-.73,1-1.11s.74-.81,1.14-1.23l1.22-1.27a2,2,0,0,0,0-2.65l-1.19-1.29c-.79-.86-1.5-1.67-2.1-2.38s-1.09-1.31-1.43-1.74l-.52-.68s.26.18.68.53,1,.83,1.72,1.45,1.5,1.34,2.34,2.14l.63.61.33.31.34.35a3,3,0,0,1,.78,2,3,3,0,0,1-.83,2l-.1.11-.08.08-.17.15-.33.31-.64.6-1.25,1.12C130.06,748.63,129.67,749,129.32,749.26Z"/><path class="cls-1" d="M123.67,749.21l-1.11-1q-.6-.54-1.23-1.14l-.64-.61-.32-.31-.16-.16-.08-.08-.1-.11a3,3,0,0,1,0-4.07l.35-.33.33-.31.65-.6c.85-.78,1.66-1.5,2.37-2.1s1.32-1.09,1.74-1.42.69-.52.69-.52l-.53.67c-.35.43-.84,1-1.46,1.72s-1.34,1.5-2.14,2.34l-1.22,1.27a2,2,0,0,0-.5,1.32,1.91,1.91,0,0,0,.49,1.33l1.2,1.29,1.12,1.25c.35.39.68.78,1,1.13.6.71,1.09,1.31,1.42,1.74s.52.68.52.68-.25-.18-.67-.53S124.37,749.82,123.67,749.21Z"/><path class="cls-5" d="M77.74,752.11a8.76,8.76,0,0,0,7.64-4.34l34.92,1.83,1.24,1.25c1.16,8.32,4.28,17.1,8.53,23.44l.31.46,6-2L136,772a65,65,0,0,1-5.84-19.91l.61-.6,44.6,1.29,2.09.06,8.32.24h0l2.8.08,2.77.08,9.93.28,82.26,2.37a.9.9,0,0,0,.36-.08l18.91-9.8a.73.73,0,0,0,.39-.64.75.75,0,0,0-.38-.65l-18.74-10.12a.86.86,0,0,0-.36-.08l-64.06.73-2.09,0h-1.19l-11.87.14h0l-5.94.06-4.4.06-63.13.72-.73-.74a64.83,64.83,0,0,1,6.18-19.81l.36-.73-5.93-2.15-.31.48a60.42,60.42,0,0,0-8.94,23.27l-1.25,1.23L85.46,739a8.78,8.78,0,1,0-7.72,13.09ZM129,734.19l-1.25-1.26h0c.08-.8.18-1.6.33-2.4a63.82,63.82,0,0,1,4.51-14c-.58,1-1.15,2-1.69,3a55.8,55.8,0,0,0-5.19,13.12,1.67,1.67,0,0,0-.35.26l-1.93,1.9a58.93,58.93,0,0,1,8.05-20.24l3.32,1.21A65.89,65.89,0,0,0,129,734.19Zm9.38,16,7.27-6.31-7.14-6.3,145-1.66,17.36,9.37-17.52,9.08Zm-6.19-.17.31-.31,5.22-.45-4.31-.45.2-.19,5.11-.44-4.22-.44.22-.21,5-.43-4.13-.43.24-.23,4.88-.42-4-.42.26-.25,4.77-.41-4.08-.43a2,2,0,0,0,.08-.22l5-.43-5-.52a2.09,2.09,0,0,0-.08-.23l4.09-.35L137,742.3l-.25-.26,4-.35-4.88-.5-.23-.24,4.13-.35-5-.52-.21-.22,4.22-.36-5.1-.53-.19-.2,4.31-.37-5.2-.54-.18-.18,5.87-.07L143.7,744l-5.5,6.26Zm-8.88,2.61,1.87,1.91a1.76,1.76,0,0,0,.3.24c.18.87.37,1.74.62,2.6a63.8,63.8,0,0,0,6,13.79c-.43-1-.85-2.05-1.23-3.09a54.43,54.43,0,0,1-3.34-13.51h0l1.26-1.25a66.25,66.25,0,0,0,5.48,18.52L131,773A58.07,58.07,0,0,1,123.32,752.66ZM118.75,748l0,0h0Zm-2.14-4.36a.23.23,0,0,1,.07-.16l9.72-9.56a.25.25,0,0,1,.16-.06.22.22,0,0,1,.16.07l9.56,9.72a.26.26,0,0,1,.06.16.21.21,0,0,1-.07.16l-9.72,9.56a.2.2,0,0,1-.16.06.25.25,0,0,1-.16-.06l-9.56-9.72A.22.22,0,0,1,116.61,743.66Zm-1.08,1.06a1.13,1.13,0,0,0,.1.13l.89.9a9,9,0,0,0,.37,1.44A8.53,8.53,0,0,1,115.53,744.72Zm-1.33,1.95a7.11,7.11,0,0,1,.34-7.22l4.33-.15-3.22,3.16a1.67,1.67,0,0,0-.5,1.19,1.6,1.6,0,0,0,.09.53,9.06,9.06,0,0,0,.46,3,8,8,0,0,1-1.6-3.5,8.57,8.57,0,0,0,.42,3.46A3.65,3.65,0,0,1,114.2,746.67Zm-5.87-.07a7.05,7.05,0,0,1,.36-6.94l4.15-.15a8.4,8.4,0,0,0-.82,5.08,6.13,6.13,0,0,1-.24-1,8,8,0,0,0,.35,3.41,7.86,7.86,0,0,1-1.51-3.43,8,8,0,0,0,.32,3.4,7.65,7.65,0,0,1-1.47-3.42,7.92,7.92,0,0,0,.28,3.39,7.8,7.8,0,0,1-1.44-3.4,8,8,0,0,0,.25,3.37Zm-5.82-3.11a8.62,8.62,0,0,0-.11.87,7.1,7.1,0,0,1,1-4.51l3.6-.13a8.46,8.46,0,0,0-.79,4.79,6,6,0,0,1-.21-1,7.68,7.68,0,0,0,.2,3.34,7.65,7.65,0,0,1-1.36-3.35,7.9,7.9,0,0,0,.17,3.32,7.57,7.57,0,0,1-1.33-3.34,7.86,7.86,0,0,0,.14,3.31A7.61,7.61,0,0,1,102.51,743.49Zm-4.63-.06a6.34,6.34,0,0,0-.17,1.29,7.07,7.07,0,0,1,.88-4.71l3.12-.11a8.37,8.37,0,0,0-.39,6.25c0,.2.07.41.11.61a7.48,7.48,0,0,1-1.23-3.3,7.78,7.78,0,0,0,0,3.26,7.48,7.48,0,0,1-1.2-3.28,7.74,7.74,0,0,0,0,3.25A7.41,7.41,0,0,1,97.88,743.43Zm-4.61.14a7.16,7.16,0,0,1,.93-3.4l2.71-.1a8.36,8.36,0,0,0-.29,6.27,2.93,2.93,0,0,0,0,.29,7.42,7.42,0,0,1-1.11-3.23,7.67,7.67,0,0,0-.08,3.2,7.51,7.51,0,0,1-1.08-3.22,7.59,7.59,0,0,0-.11,3.18A7.24,7.24,0,0,1,93.27,743.57Zm-3.5-.26a6.75,6.75,0,0,0-.3,1.93,7,7,0,0,1,.72-4.93l2.34-.08a8.42,8.42,0,0,0-.68,4.37,9.29,9.29,0,0,0,.05,1.9,7.34,7.34,0,0,1-1-3.17,7.58,7.58,0,0,0-.22,3.14A7.3,7.3,0,0,1,89.77,743.31Zm-2.32,0a7.62,7.62,0,0,0-.32,3.07,8.29,8.29,0,0,1-.64-1.72,8.27,8.27,0,0,0,.11-1.23,8.78,8.78,0,0,0-.49-2.95l2.42-.08a8.34,8.34,0,0,0-.3,5.84A7.26,7.26,0,0,1,87.45,743.28Zm-17,0a7.33,7.33,0,1,1,7.26,7.39A7.33,7.33,0,0,1,70.49,743.26Z"/></svg>