<?xml version="1.0" encoding="UTF-8" standalone="no"?>
<!DOCTYPE svg PUBLIC "-//W3C//DTD SVG 1.1//EN" "http://www.w3.org/Graphics/SVG/1.1/DTD/svg11.dtd">
<svg width="100%" height="100%" viewBox="0 0 2629 671" version="1.1" xmlns="http://www.w3.org/2000/svg" xmlns:xlink="http://www.w3.org/1999/xlink" xml:space="preserve" xmlns:serif="http://www.serif.com/" style="fill-rule:evenodd;clip-rule:evenodd;stroke-linejoin:round;stroke-miterlimit:2;">
    <g id="RII-logo--TM----stacked" serif:id="RII logo (TM) - stacked" transform="matrix(0.796407,0,0,0.262993,0,0)">
        <rect x="0" y="0" width="3300" height="2550" style="fill:none;"/>
        <g id="RII-_stacked-White---curves-" serif:id="RII _stacked White  (curves)" transform="matrix(0.948214,0,0,1,67.7871,0)">
            <g transform="matrix(1.04189,0,0,2.99169,-2239.34,-1679.29)">
                <path d="M3846.45,859.234L3846.45,732.48L3893.83,732.48C3903.53,732.48 3911.69,734.181 3918.33,737.584C3924.97,740.987 3929.98,745.736 3933.39,751.833C3936.79,757.93 3938.49,765.005 3938.49,773.058C3938.49,781.111 3936.78,788.115 3933.34,794.07C3929.91,800.025 3924.85,804.619 3918.16,807.852C3911.47,811.084 3903.24,812.701 3893.49,812.701L3859.63,812.701L3859.63,793.9L3890.51,793.9C3896.24,793.9 3900.92,793.092 3904.55,791.476C3908.18,789.859 3910.87,787.492 3912.63,784.372C3914.39,781.253 3915.27,777.482 3915.27,773.058C3915.27,768.521 3914.39,764.65 3912.63,761.446C3910.87,758.242 3908.16,755.789 3904.51,754.088C3900.85,752.386 3896.13,751.535 3890.34,751.535L3869.16,751.535L3869.16,859.234L3846.45,859.234ZM3917.73,859.234L3886.94,801.727L3911.78,801.727L3943.17,859.234L3917.73,859.234Z" style="fill:white;fill-rule:nonzero;"/>
                <path d="M3960.1,859.234L3960.1,732.48L4042.45,732.48L4042.45,751.62L3982.81,751.62L3982.81,785.819L4038.02,785.819L4038.02,804.704L3982.81,804.704L3982.81,840.093L4042.79,840.093L4042.79,859.234L3960.1,859.234Z" style="fill:white;fill-rule:nonzero;"/>
                <path d="M4110.08,861.191C4100.27,861.191 4091.74,859.659 4084.51,856.597C4077.28,853.534 4071.63,849.082 4067.54,843.241C4063.46,837.399 4061.25,830.31 4060.91,821.973L4083.28,821.973C4083.68,826.397 4085.07,830.083 4087.45,833.032C4089.83,835.981 4092.98,838.179 4096.89,839.625C4100.81,841.072 4105.14,841.795 4109.91,841.795C4114.9,841.795 4119.31,841.029 4123.14,839.498C4126.96,837.966 4129.95,835.826 4132.11,833.075C4134.27,830.324 4135.34,827.134 4135.34,823.505C4135.34,820.215 4134.39,817.493 4132.49,815.338C4130.59,813.183 4127.93,811.354 4124.5,809.851C4121.07,808.348 4117.05,807.029 4112.46,805.895L4098.08,802.152C4087.48,799.43 4079.21,795.318 4073.28,789.817C4067.36,784.316 4064.39,777.085 4064.39,768.124C4064.39,760.638 4066.41,754.088 4070.43,748.473C4074.46,742.858 4079.96,738.506 4086.94,735.415C4093.91,732.324 4101.82,730.778 4110.67,730.778C4119.69,730.778 4127.6,732.338 4134.41,735.457C4141.21,738.576 4146.53,742.887 4150.36,748.388C4154.19,753.889 4156.19,760.156 4156.36,767.188L4134.32,767.188C4133.76,761.744 4131.33,757.533 4127.05,754.555C4122.77,751.578 4117.19,750.089 4110.33,750.089C4105.57,750.089 4101.47,750.812 4098.04,752.259C4094.61,753.705 4091.97,755.675 4090.13,758.171C4088.29,760.666 4087.36,763.53 4087.36,766.763C4087.36,770.279 4088.45,773.172 4090.64,775.44C4092.82,777.709 4095.57,779.523 4098.89,780.885C4102.21,782.246 4105.57,783.352 4108.97,784.202L4120.8,787.265C4125.5,788.399 4130.07,789.902 4134.49,791.773C4138.92,793.645 4142.9,796.013 4146.44,798.877C4149.99,801.741 4152.81,805.215 4154.91,809.298C4157.01,813.381 4158.06,818.174 4158.06,823.675C4158.06,831.104 4156.16,837.64 4152.36,843.283C4148.56,848.926 4143.08,853.322 4135.94,856.469C4128.79,859.617 4120.17,861.191 4110.08,861.191Z" style="fill:white;fill-rule:nonzero;"/>
                <path d="M4178.9,859.234L4178.9,732.48L4261.25,732.48L4261.25,751.62L4201.61,751.62L4201.61,785.819L4256.82,785.819L4256.82,804.704L4201.61,804.704L4201.61,840.093L4261.59,840.093L4261.59,859.234L4178.9,859.234Z" style="fill:white;fill-rule:nonzero;"/>
                <path d="M4275.88,859.234L4320.11,732.48L4348.95,732.48L4394.21,859.234L4369.28,859.234L4346.74,793.39C4344.53,786.584 4342.23,778.885 4339.85,770.293C4337.47,761.701 4334.83,751.932 4331.94,740.987L4336.7,740.987C4333.87,752.046 4331.3,761.9 4329.01,770.549C4326.71,779.197 4324.54,786.811 4322.5,793.39L4300.72,859.234L4275.88,859.234ZM4301.65,827.843L4301.65,809.553L4368.44,809.553L4368.44,827.843L4301.65,827.843Z" style="fill:white;fill-rule:nonzero;"/>
                <path d="M4411.14,859.234L4411.14,732.48L4458.52,732.48C4468.22,732.48 4476.39,734.181 4483.02,737.584C4489.66,740.987 4494.68,745.736 4498.08,751.833C4501.48,757.93 4503.19,765.005 4503.19,773.058C4503.19,781.111 4501.47,788.115 4498.04,794.07C4494.61,800.025 4489.55,804.619 4482.85,807.852C4476.16,811.084 4467.94,812.701 4458.18,812.701L4424.32,812.701L4424.32,793.9L4455.21,793.9C4460.93,793.9 4465.61,793.092 4469.24,791.476C4472.87,789.859 4475.57,787.492 4477.32,784.372C4479.08,781.253 4479.96,777.482 4479.96,773.058C4479.96,768.521 4479.08,764.65 4477.32,761.446C4475.57,758.242 4472.86,755.789 4469.2,754.088C4465.54,752.386 4460.82,751.535 4455.04,751.535L4433.85,751.535L4433.85,859.234L4411.14,859.234ZM4482.43,859.234L4451.63,801.727L4476.47,801.727L4507.86,859.234L4482.43,859.234Z" style="fill:white;fill-rule:nonzero;"/>
                <path d="M4578.81,860.935C4567.7,860.935 4557.77,858.355 4549.04,853.194C4540.3,848.033 4533.41,840.604 4528.37,830.906C4523.32,821.208 4520.8,809.553 4520.8,795.942C4520.8,782.274 4523.33,770.577 4528.41,760.851C4533.48,751.124 4540.4,743.681 4549.17,738.52C4557.93,733.359 4567.81,730.778 4578.81,730.778C4585.73,730.778 4592.21,731.757 4598.25,733.713C4604.29,735.67 4609.68,738.534 4614.41,742.305C4619.15,746.077 4623.05,750.685 4626.11,756.129C4629.17,761.574 4631.22,767.755 4632.24,774.674L4609.35,774.674C4608.61,770.875 4607.35,767.529 4605.57,764.636C4603.78,761.744 4601.56,759.291 4598.89,757.278C4596.22,755.264 4593.22,753.733 4589.87,752.684C4586.53,751.635 4582.95,751.11 4579.15,751.11C4572.23,751.11 4566.1,752.854 4560.73,756.342C4555.38,759.83 4551.18,764.906 4548.15,771.569C4545.11,778.233 4543.59,786.357 4543.59,795.942C4543.59,805.64 4545.12,813.807 4548.19,820.442C4551.25,827.078 4555.46,832.097 4560.82,835.499C4566.18,838.902 4572.26,840.604 4579.07,840.604C4582.87,840.604 4586.44,840.079 4589.79,839.03C4593.13,837.981 4596.15,836.449 4598.85,834.436C4601.54,832.423 4603.8,829.956 4605.61,827.035C4607.42,824.114 4608.67,820.782 4609.35,817.039L4632.32,817.039C4631.47,823.108 4629.61,828.793 4626.75,834.096C4623.89,839.398 4620.13,844.063 4615.48,848.09C4610.83,852.116 4605.43,855.264 4599.27,857.533C4593.12,859.801 4586.3,860.935 4578.81,860.935Z" style="fill:white;fill-rule:nonzero;"/>
                <path d="M4653.16,859.234L4653.16,732.48L4675.88,732.48L4675.88,784.883L4734.83,784.883L4734.83,732.48L4757.54,732.48L4757.54,859.234L4734.83,859.234L4734.83,804.024L4675.88,804.024L4675.88,859.234L4653.16,859.234Z" style="fill:white;fill-rule:nonzero;"/>
                <rect x="3846.45" y="970.519" width="22.714" height="126.754" style="fill:white;fill-rule:nonzero;"/>
                <path d="M3896.42,1097.27L3896.42,970.519L3922.11,970.519L3965.92,1040.36C3967.74,1043.25 3969.67,1046.53 3971.71,1050.19C3973.75,1053.85 3975.88,1057.93 3978.09,1062.44C3980.3,1066.95 3982.49,1071.95 3984.64,1077.45L3982.09,1077.45C3981.69,1072.69 3981.34,1067.8 3981.02,1062.78C3980.71,1057.76 3980.49,1053 3980.34,1048.49C3980.2,1043.98 3980.13,1040.16 3980.13,1037.04L3980.13,970.519L4003.18,970.519L4003.18,1097.27L3977.41,1097.27L3937.85,1034.41C3935.36,1030.38 3933,1026.41 3930.79,1022.5C3928.58,1018.58 3926.2,1014.16 3923.64,1009.23C3921.09,1004.29 3918,998.337 3914.37,991.362L3917.61,991.362C3917.95,997.543 3918.26,1003.4 3918.54,1008.93C3918.82,1014.46 3919.07,1019.41 3919.26,1023.77C3919.46,1028.14 3919.56,1031.66 3919.56,1034.32L3919.56,1097.27L3896.42,1097.27Z" style="fill:white;fill-rule:nonzero;"/>
                <path d="M4028.71,1097.27L4028.71,970.519L4054.4,970.519L4098.21,1040.36C4100.02,1043.25 4101.95,1046.53 4103.99,1050.19C4106.03,1053.85 4108.16,1057.93 4110.37,1062.44C4112.59,1066.95 4114.77,1071.95 4116.92,1077.45L4114.37,1077.45C4113.97,1072.69 4113.62,1067.8 4113.31,1062.78C4113,1057.76 4112.77,1053 4112.63,1048.49C4112.49,1043.98 4112.41,1040.16 4112.41,1037.04L4112.41,970.519L4135.47,970.519L4135.47,1097.27L4109.69,1097.27L4070.14,1034.41C4067.64,1030.38 4065.29,1026.41 4063.07,1022.5C4060.86,1018.58 4058.48,1014.16 4055.93,1009.23C4053.38,1004.29 4050.29,998.337 4046.66,991.362L4049.89,991.362C4050.23,997.543 4050.54,1003.4 4050.82,1008.93C4051.11,1014.46 4051.35,1019.41 4051.55,1023.77C4051.75,1028.14 4051.85,1031.66 4051.85,1034.32L4051.85,1097.27L4028.71,1097.27Z" style="fill:white;fill-rule:nonzero;"/>
                <path d="M4215.26,1098.98C4204.15,1098.98 4194.19,1096.39 4185.4,1091.23C4176.61,1086.07 4169.68,1078.64 4164.61,1068.94C4159.53,1059.25 4156.99,1047.59 4156.99,1033.98C4156.99,1020.31 4159.53,1008.62 4164.61,998.89C4169.68,989.164 4176.61,981.72 4185.4,976.559C4194.19,971.399 4204.15,968.818 4215.26,968.818C4226.32,968.818 4236.23,971.399 4245,976.559C4253.76,981.72 4260.68,989.164 4265.75,998.89C4270.83,1008.62 4273.37,1020.31 4273.37,1033.98C4273.37,1047.59 4270.83,1059.26 4265.75,1068.99C4260.68,1078.71 4253.76,1086.14 4245,1091.28C4236.23,1096.41 4226.32,1098.98 4215.26,1098.98ZM4215.26,1078.64C4222.13,1078.64 4228.21,1076.93 4233.51,1073.5C4238.82,1070.07 4242.97,1065.02 4245.98,1058.35C4248.98,1051.69 4250.48,1043.57 4250.48,1033.98C4250.48,1024.28 4248.98,1016.1 4245.98,1009.44C4242.97,1002.77 4238.82,997.728 4233.51,994.296C4228.21,990.865 4222.13,989.15 4215.26,989.15C4208.35,989.15 4202.22,990.88 4196.89,994.339C4191.56,997.799 4187.38,1002.86 4184.34,1009.52C4181.31,1016.19 4179.79,1024.34 4179.79,1033.98C4179.79,1043.57 4181.31,1051.68 4184.34,1058.31C4187.38,1064.95 4191.56,1070 4196.89,1073.45C4202.22,1076.91 4208.35,1078.64 4215.26,1078.64Z" style="fill:white;fill-rule:nonzero;"/>
                <path d="M4324.92,1097.27L4279.75,970.519L4304.67,970.519L4327.13,1036.36C4329.23,1042.94 4331.5,1050.53 4333.94,1059.12C4336.38,1067.71 4339.01,1077.42 4341.85,1088.26L4337.09,1088.26C4339.92,1077.25 4342.52,1067.5 4344.87,1058.99C4347.22,1050.49 4349.42,1042.94 4351.46,1036.36L4373.24,970.519L4398.08,970.519L4353.67,1097.27L4324.92,1097.27Z" style="fill:white;fill-rule:nonzero;"/>
                <path d="M4393.4,1097.27L4437.64,970.519L4466.48,970.519L4511.73,1097.27L4486.81,1097.27L4464.26,1031.43C4462.05,1024.62 4459.76,1016.93 4457.37,1008.33C4454.99,999.741 4452.35,989.972 4449.46,979.026L4454.23,979.026C4451.39,990.086 4448.82,999.939 4446.53,1008.59C4444.23,1017.24 4442.06,1024.85 4440.02,1031.43L4418.24,1097.27L4393.4,1097.27ZM4419.18,1065.88L4419.18,1047.59L4485.96,1047.59L4485.96,1065.88L4419.18,1065.88Z" style="fill:white;fill-rule:nonzero;"/>
                <path d="M4507.73,989.66L4507.73,970.519L4608.63,970.519L4608.63,989.66L4569.58,989.66L4569.58,1097.27L4546.87,1097.27L4546.87,989.66L4507.73,989.66Z" style="fill:white;fill-rule:nonzero;"/>
                <rect x="4628.45" y="970.519" width="22.714" height="126.754" style="fill:white;fill-rule:nonzero;"/>
                <path d="M4730.96,1098.98C4719.84,1098.98 4709.89,1096.39 4701.1,1091.23C4692.31,1086.07 4685.38,1078.64 4680.3,1068.94C4675.22,1059.25 4672.69,1047.59 4672.69,1033.98C4672.69,1020.31 4675.22,1008.62 4680.3,998.89C4685.38,989.164 4692.31,981.72 4701.1,976.559C4709.89,971.399 4719.84,968.818 4730.96,968.818C4742.02,968.818 4751.93,971.399 4760.69,976.559C4769.45,981.72 4776.37,989.164 4781.45,998.89C4786.52,1008.62 4789.06,1020.31 4789.06,1033.98C4789.06,1047.59 4786.52,1059.26 4781.45,1068.99C4776.37,1078.71 4769.45,1086.14 4760.69,1091.28C4751.93,1096.41 4742.02,1098.98 4730.96,1098.98ZM4730.96,1078.64C4737.82,1078.64 4743.9,1076.93 4749.21,1073.5C4754.51,1070.07 4758.66,1065.02 4761.67,1058.35C4764.67,1051.69 4766.18,1043.57 4766.18,1033.98C4766.18,1024.28 4764.67,1016.1 4761.67,1009.44C4758.66,1002.77 4754.51,997.728 4749.21,994.296C4743.9,990.865 4737.82,989.15 4730.96,989.15C4724.04,989.15 4717.91,990.88 4712.58,994.339C4707.25,997.799 4703.07,1002.86 4700.03,1009.52C4697,1016.19 4695.48,1024.34 4695.48,1033.98C4695.48,1043.57 4697,1051.68 4700.03,1058.31C4703.07,1064.95 4707.25,1070 4712.58,1073.45C4717.91,1076.91 4724.04,1078.64 4730.96,1078.64Z" style="fill:white;fill-rule:nonzero;"/>
                <path d="M4810.58,1097.27L4810.58,970.519L4836.28,970.519L4880.09,1040.36C4881.9,1043.25 4883.83,1046.53 4885.87,1050.19C4887.91,1053.85 4890.04,1057.93 4892.25,1062.44C4894.46,1066.95 4896.65,1071.95 4898.8,1077.45L4896.25,1077.45C4895.85,1072.69 4895.5,1067.8 4895.19,1062.78C4894.87,1057.76 4894.65,1053 4894.51,1048.49C4894.36,1043.98 4894.29,1040.16 4894.29,1037.04L4894.29,970.519L4917.35,970.519L4917.35,1097.27L4891.57,1097.27L4852.01,1034.41C4849.52,1030.38 4847.16,1026.41 4844.95,1022.5C4842.74,1018.58 4840.36,1014.16 4837.81,1009.23C4835.25,1004.29 4832.16,998.337 4828.53,991.362L4831.77,991.362C4832.11,997.543 4832.42,1003.4 4832.7,1008.93C4832.99,1014.46 4833.23,1019.41 4833.43,1023.77C4833.62,1028.14 4833.72,1031.66 4833.72,1034.32L4833.72,1097.27L4810.58,1097.27Z" style="fill:white;fill-rule:nonzero;"/>
                <path d="M4987.36,1099.23C4977.55,1099.23 4969.03,1097.7 4961.8,1094.64C4954.57,1091.57 4948.91,1087.12 4944.82,1081.28C4940.74,1075.44 4938.53,1068.35 4938.19,1060.01L4960.56,1060.01C4960.96,1064.44 4962.35,1068.12 4964.73,1071.07C4967.11,1074.02 4970.26,1076.22 4974.17,1077.66C4978.09,1079.11 4982.43,1079.83 4987.19,1079.83C4992.18,1079.83 4996.59,1079.07 5000.42,1077.54C5004.25,1076.01 5007.24,1073.87 5009.39,1071.12C5011.55,1068.36 5012.62,1065.17 5012.62,1061.54C5012.62,1058.26 5011.68,1055.53 5009.78,1053.38C5007.88,1051.22 5005.21,1049.39 5001.78,1047.89C4998.35,1046.39 4994.34,1045.07 4989.74,1043.93L4975.36,1040.19C4964.76,1037.47 4956.49,1033.36 4950.57,1027.86C4944.64,1022.36 4941.68,1015.12 4941.68,1006.16C4941.68,998.678 4943.69,992.127 4947.72,986.513C4951.74,980.898 4957.24,976.545 4964.22,973.454C4971.2,970.363 4979.11,968.818 4987.95,968.818C4996.97,968.818 5004.88,970.378 5011.69,973.497C5018.49,976.616 5023.81,980.926 5027.64,986.428C5031.47,991.929 5033.47,998.196 5033.64,1005.23L5011.6,1005.23C5011.04,999.784 5008.61,995.573 5004.33,992.595C5000.05,989.618 4994.48,988.129 4987.61,988.129C4982.85,988.129 4978.75,988.852 4975.32,990.298C4971.89,991.744 4969.25,993.715 4967.41,996.211C4965.57,998.706 4964.65,1001.57 4964.65,1004.8C4964.65,1008.32 4965.74,1011.21 4967.92,1013.48C4970.1,1015.75 4972.86,1017.56 4976.17,1018.92C4979.49,1020.28 4982.85,1021.39 4986.25,1022.24L4998.08,1025.3C5002.78,1026.44 5007.35,1027.94 5011.77,1029.81C5016.2,1031.68 5020.18,1034.05 5023.73,1036.92C5027.27,1039.78 5030.09,1043.25 5032.19,1047.34C5034.29,1051.42 5035.34,1056.21 5035.34,1061.71C5035.34,1069.14 5033.44,1075.68 5029.64,1081.32C5025.84,1086.97 5020.37,1091.36 5013.22,1094.51C5006.07,1097.66 4997.45,1099.23 4987.36,1099.23Z" style="fill:white;fill-rule:nonzero;"/>
                <rect x="3846.45" y="1208.56" width="22.714" height="126.754" style="fill:white;fill-rule:nonzero;"/>
                <path d="M3898.16,1335.31L3898.16,1208.56L3923.86,1208.56L3967.67,1278.4C3969.48,1281.29 3971.41,1284.57 3973.45,1288.23C3975.49,1291.88 3977.62,1295.97 3979.83,1300.48C3982.04,1304.99 3984.23,1309.99 3986.38,1315.49L3983.83,1315.49C3983.43,1310.73 3983.08,1305.84 3982.77,1300.82C3982.45,1295.8 3982.23,1291.03 3982.09,1286.53C3981.94,1282.02 3981.87,1278.2 3981.87,1275.08L3981.87,1208.56L4004.93,1208.56L4004.93,1335.31L3979.15,1335.31L3939.59,1272.45C3937.1,1268.42 3934.74,1264.45 3932.53,1260.54C3930.32,1256.62 3927.94,1252.2 3925.39,1247.27C3922.84,1242.33 3919.74,1236.38 3916.11,1229.4L3919.35,1229.4C3919.69,1235.58 3920,1241.44 3920.28,1246.97C3920.57,1252.5 3920.81,1257.45 3921.01,1261.81C3921.2,1266.18 3921.3,1269.7 3921.3,1272.36L3921.3,1335.31L3898.16,1335.31Z" style="fill:white;fill-rule:nonzero;"/>
                <path d="M4084.47,1337.02C4073.35,1337.02 4063.43,1334.43 4054.69,1329.27C4045.96,1324.11 4039.07,1316.68 4034.02,1306.99C4028.97,1297.29 4026.45,1285.63 4026.45,1272.02C4026.45,1258.35 4028.99,1246.66 4034.06,1236.93C4039.14,1227.2 4046.06,1219.76 4054.82,1214.6C4063.58,1209.44 4073.47,1206.86 4084.47,1206.86C4091.39,1206.86 4097.87,1207.84 4103.91,1209.79C4109.95,1211.75 4115.33,1214.61 4120.07,1218.38C4124.81,1222.16 4128.7,1226.76 4131.77,1232.21C4134.83,1237.65 4136.87,1243.84 4137.89,1250.75L4115.01,1250.75C4114.27,1246.95 4113.01,1243.61 4111.22,1240.72C4109.44,1237.82 4107.21,1235.37 4104.54,1233.36C4101.88,1231.34 4098.87,1229.81 4095.53,1228.76C4092.18,1227.71 4088.61,1227.19 4084.81,1227.19C4077.89,1227.19 4071.75,1228.93 4066.39,1232.42C4061.03,1235.91 4056.83,1240.99 4053.8,1247.65C4050.77,1254.31 4049.25,1262.44 4049.25,1272.02C4049.25,1281.72 4050.78,1289.89 4053.84,1296.52C4056.91,1303.16 4061.12,1308.18 4066.47,1311.58C4071.84,1314.98 4077.92,1316.68 4084.72,1316.68C4088.52,1316.68 4092.1,1316.16 4095.44,1315.11C4098.79,1314.06 4101.81,1312.53 4104.5,1310.52C4107.2,1308.5 4109.45,1306.04 4111.27,1303.11C4113.08,1300.19 4114.33,1296.86 4115.01,1293.12L4137.98,1293.12C4137.13,1299.19 4135.27,1304.87 4132.4,1310.17C4129.54,1315.48 4125.78,1320.14 4121.13,1324.17C4116.48,1328.2 4111.08,1331.34 4104.93,1333.61C4098.77,1335.88 4091.95,1337.02 4084.47,1337.02Z" style="fill:white;fill-rule:nonzero;"/>
                <path d="M4213.09,1337.02C4201.98,1337.02 4192.02,1334.43 4183.23,1329.27C4174.44,1324.11 4167.51,1316.68 4162.43,1306.99C4157.36,1297.29 4154.82,1285.63 4154.82,1272.02C4154.82,1258.35 4157.36,1246.66 4162.43,1236.93C4167.51,1227.2 4174.44,1219.76 4183.23,1214.6C4192.02,1209.44 4201.98,1206.86 4213.09,1206.86C4224.15,1206.86 4234.06,1209.44 4242.82,1214.6C4251.59,1219.76 4258.51,1227.2 4263.58,1236.93C4268.66,1246.66 4271.2,1258.35 4271.2,1272.02C4271.2,1285.63 4268.66,1297.3 4263.58,1307.03C4258.51,1316.75 4251.59,1324.18 4242.82,1329.32C4234.06,1334.45 4224.15,1337.02 4213.09,1337.02ZM4213.09,1316.68C4219.96,1316.68 4226.04,1314.97 4231.34,1311.54C4236.64,1308.11 4240.8,1303.06 4243.8,1296.39C4246.81,1289.73 4248.31,1281.61 4248.31,1272.02C4248.31,1262.32 4246.81,1254.14 4243.8,1247.48C4240.8,1240.82 4236.64,1235.77 4231.34,1232.34C4226.04,1228.9 4219.96,1227.19 4213.09,1227.19C4206.17,1227.19 4200.05,1228.92 4194.72,1232.38C4189.39,1235.84 4185.2,1240.9 4182.17,1247.56C4179.14,1254.23 4177.62,1262.38 4177.62,1272.02C4177.62,1281.61 4179.14,1289.72 4182.17,1296.35C4185.2,1302.99 4189.39,1308.03 4194.72,1311.49C4200.05,1314.95 4206.17,1316.68 4213.09,1316.68Z" style="fill:white;fill-rule:nonzero;"/>
                <path d="M4292.72,1335.31L4292.72,1208.56L4340.1,1208.56C4349.8,1208.56 4357.97,1210.26 4364.6,1213.66C4371.24,1217.07 4376.26,1221.82 4379.66,1227.91C4383.06,1234.01 4384.77,1241.08 4384.77,1249.14C4384.77,1257.19 4383.05,1264.19 4379.62,1270.15C4376.19,1276.11 4371.12,1280.7 4364.43,1283.93C4357.74,1287.16 4349.52,1288.78 4339.76,1288.78L4305.9,1288.78L4305.9,1269.98L4336.78,1269.98C4342.51,1269.98 4347.19,1269.17 4350.82,1267.56C4354.45,1265.94 4357.15,1263.57 4358.9,1260.45C4360.66,1257.33 4361.54,1253.56 4361.54,1249.14C4361.54,1244.6 4360.66,1240.73 4358.9,1237.53C4357.15,1234.32 4354.44,1231.87 4350.78,1230.17C4347.12,1228.47 4342.4,1227.62 4336.61,1227.62L4315.43,1227.62L4315.43,1335.31L4292.72,1335.31ZM4364.01,1335.31L4333.21,1277.81L4358.05,1277.81L4389.44,1335.31L4364.01,1335.31Z" style="fill:white;fill-rule:nonzero;"/>
                <path d="M4406.37,1335.31L4406.37,1208.56L4453.76,1208.56C4463.45,1208.56 4471.62,1210.37 4478.26,1214C4484.89,1217.63 4489.91,1222.61 4493.31,1228.93C4496.72,1235.26 4498.42,1242.44 4498.42,1250.5C4498.42,1258.61 4496.7,1265.81 4493.27,1272.11C4489.84,1278.4 4484.78,1283.36 4478.09,1286.99C4471.39,1290.62 4463.17,1292.44 4453.42,1292.44L4422.03,1292.44L4422.03,1273.72L4450.44,1273.72C4456.17,1273.72 4460.86,1272.73 4464.52,1270.75C4468.18,1268.76 4470.87,1266.01 4472.6,1262.49C4474.33,1258.98 4475.19,1254.98 4475.19,1250.5C4475.19,1246.02 4474.33,1242.05 4472.6,1238.59C4470.87,1235.13 4468.16,1232.43 4464.48,1230.51C4460.79,1228.58 4456.05,1227.62 4450.27,1227.62L4429.09,1227.62L4429.09,1335.31L4406.37,1335.31Z" style="fill:white;fill-rule:nonzero;"/>
                <path d="M4573.02,1337.02C4561.91,1337.02 4551.95,1334.43 4543.16,1329.27C4534.37,1324.11 4527.44,1316.68 4522.36,1306.99C4517.29,1297.29 4514.75,1285.63 4514.75,1272.02C4514.75,1258.35 4517.29,1246.66 4522.36,1236.93C4527.44,1227.2 4534.37,1219.76 4543.16,1214.6C4551.95,1209.44 4561.91,1206.86 4573.02,1206.86C4584.08,1206.86 4593.99,1209.44 4602.76,1214.6C4611.52,1219.76 4618.44,1227.2 4623.51,1236.93C4628.59,1246.66 4631.13,1258.35 4631.13,1272.02C4631.13,1285.63 4628.59,1297.3 4623.51,1307.03C4618.44,1316.75 4611.52,1324.18 4602.76,1329.32C4593.99,1334.45 4584.08,1337.02 4573.02,1337.02ZM4573.02,1316.68C4579.89,1316.68 4585.97,1314.97 4591.27,1311.54C4596.57,1308.11 4600.73,1303.06 4603.73,1296.39C4606.74,1289.73 4608.24,1281.61 4608.24,1272.02C4608.24,1262.32 4606.74,1254.14 4603.73,1247.48C4600.73,1240.82 4596.57,1235.77 4591.27,1232.34C4585.97,1228.9 4579.89,1227.19 4573.02,1227.19C4566.11,1227.19 4559.98,1228.92 4554.65,1232.38C4549.32,1235.84 4545.14,1240.9 4542.1,1247.56C4539.07,1254.23 4537.55,1262.38 4537.55,1272.02C4537.55,1281.61 4539.07,1289.72 4542.1,1296.35C4545.14,1302.99 4549.32,1308.03 4554.65,1311.49C4559.98,1314.95 4566.11,1316.68 4573.02,1316.68Z" style="fill:white;fill-rule:nonzero;"/>
                <path d="M4652.65,1335.31L4652.65,1208.56L4700.03,1208.56C4709.73,1208.56 4717.9,1210.26 4724.53,1213.66C4731.17,1217.07 4736.19,1221.82 4739.59,1227.91C4742.99,1234.01 4744.69,1241.08 4744.69,1249.14C4744.69,1257.19 4742.98,1264.19 4739.55,1270.15C4736.12,1276.11 4731.06,1280.7 4724.36,1283.93C4717.67,1287.16 4709.45,1288.78 4699.69,1288.78L4665.84,1288.78L4665.84,1269.98L4696.72,1269.98C4702.44,1269.98 4707.12,1269.17 4710.75,1267.56C4714.38,1265.94 4717.08,1263.57 4718.83,1260.45C4720.59,1257.33 4721.47,1253.56 4721.47,1249.14C4721.47,1244.6 4720.59,1240.73 4718.83,1237.53C4717.08,1234.32 4714.37,1231.87 4710.71,1230.17C4707.05,1228.47 4702.33,1227.62 4696.55,1227.62L4675.36,1227.62L4675.36,1335.31L4652.65,1335.31ZM4723.94,1335.31L4693.14,1277.81L4717.98,1277.81L4749.37,1335.31L4723.94,1335.31Z" style="fill:white;fill-rule:nonzero;"/>
                <path d="M4757.8,1335.31L4802.03,1208.56L4830.87,1208.56L4876.13,1335.31L4851.2,1335.31L4828.66,1269.47C4826.45,1262.66 4824.15,1254.96 4821.77,1246.37C4819.39,1237.78 4816.75,1228.01 4813.86,1217.07L4818.62,1217.07C4815.79,1228.12 4813.22,1237.98 4810.92,1246.63C4808.63,1255.28 4806.46,1262.89 4804.41,1269.47L4782.64,1335.31L4757.8,1335.31ZM4783.57,1303.92L4783.57,1285.63L4850.35,1285.63L4850.35,1303.92L4783.57,1303.92Z" style="fill:white;fill-rule:nonzero;"/>
                <path d="M4872.13,1227.7L4872.13,1208.56L4973.02,1208.56L4973.02,1227.7L4933.98,1227.7L4933.98,1335.31L4911.26,1335.31L4911.26,1227.7L4872.13,1227.7Z" style="fill:white;fill-rule:nonzero;"/>
                <path d="M4992.84,1335.31L4992.84,1208.56L5075.19,1208.56L5075.19,1227.7L5015.56,1227.7L5015.56,1261.9L5070.77,1261.9L5070.77,1280.78L5015.56,1280.78L5015.56,1316.17L5075.53,1316.17L5075.53,1335.31L4992.84,1335.31Z" style="fill:white;fill-rule:nonzero;"/>
                <path d="M5141.21,1335.31L5109.14,1335.31L5109.14,1315.66L5140.1,1315.66C5148.95,1315.66 5156.34,1314.03 5162.26,1310.77C5168.19,1307.51 5172.65,1302.63 5175.66,1296.14C5178.67,1289.64 5180.17,1281.52 5180.17,1271.77C5180.17,1262.12 5178.67,1254.07 5175.66,1247.61C5172.65,1241.14 5168.24,1236.29 5162.43,1233.06C5156.62,1229.83 5149.37,1228.21 5140.7,1228.21L5108.45,1228.21L5108.45,1208.56L5142.06,1208.56C5154.65,1208.56 5165.45,1211.08 5174.47,1216.13C5183.49,1221.18 5190.42,1228.44 5195.27,1237.91C5200.12,1247.38 5202.54,1258.66 5202.54,1271.77C5202.54,1284.98 5200.12,1296.34 5195.27,1305.84C5190.42,1315.34 5183.41,1322.62 5174.26,1327.7C5165.1,1332.78 5154.08,1335.31 5141.21,1335.31ZM5121.05,1208.56L5121.05,1335.31L5098.33,1335.31L5098.33,1208.56L5121.05,1208.56Z" style="fill:white;fill-rule:nonzero;"/>
            </g>
            <g transform="matrix(0.352192,0,0,1.01129,1873.21,1211.86)">
                <path d="M3840.75,751.62L3840.75,732.48L3941.64,732.48L3941.64,751.62L3902.59,751.62L3902.59,859.234L3879.88,859.234L3879.88,751.62L3840.75,751.62Z" style="fill:white;fill-rule:nonzero;"/>
                <path d="M3961.46,859.234L3961.46,732.48L3995.66,732.48L4019.73,797.899C4020.58,800.337 4021.53,803.471 4022.58,807.299C4023.63,811.127 4024.71,815.253 4025.82,819.676C4026.92,824.1 4027.97,828.424 4028.96,832.65C4029.95,836.875 4030.79,840.604 4031.47,843.836L4026.88,843.836C4027.56,840.66 4028.4,836.988 4029.39,832.82C4030.38,828.651 4031.43,824.341 4032.54,819.889C4033.64,815.437 4034.72,811.283 4035.77,807.426C4036.82,803.57 4037.74,800.394 4038.53,797.899L4062.35,732.48L4096.64,732.48L4096.64,859.234L4074.01,859.234L4074.01,795.261C4074.01,792.539 4074.04,789.25 4074.09,785.393C4074.15,781.537 4074.23,777.397 4074.35,772.973C4074.46,768.549 4074.58,764.083 4074.69,759.575C4074.8,755.066 4074.86,750.77 4074.86,746.686L4076.47,746.686C4075.34,751.167 4074.11,755.746 4072.77,760.425C4071.44,765.104 4070.12,769.641 4068.82,774.036C4067.51,778.432 4066.28,782.473 4065.12,786.159C4063.95,789.845 4062.95,792.879 4062.1,795.261L4038.7,859.234L4019.39,859.234L3995.66,795.261C3994.81,792.879 3993.8,789.888 3992.64,786.286C3991.47,782.685 3990.23,778.701 3988.89,774.334C3987.56,769.967 3986.23,765.416 3984.9,760.68C3983.56,755.945 3982.24,751.28 3980.94,746.686L3982.81,746.686C3982.87,750.486 3982.95,754.612 3983.07,759.064C3983.18,763.516 3983.28,767.982 3983.37,772.463C3983.45,776.943 3983.54,781.154 3983.62,785.095C3983.71,789.037 3983.75,792.426 3983.75,795.261L3983.75,859.234L3961.46,859.234Z" style="fill:white;fill-rule:nonzero;"/>
            </g>
            <g id="RII---White" serif:id="RII - White" transform="matrix(26.9799,0,0,77.4707,-100160,-24266)">
                <path d="M3740.85,343.183L3731.57,343.183L3728.26,336.745L3722.32,336.745L3722.32,343.183L3712.88,343.183L3712.88,316.933L3728.32,316.933C3736.03,316.933 3739.88,320.349 3739.88,327.183C3739.88,330.391 3738.68,332.891 3736.29,334.683L3740.85,343.183ZM3722.32,324.776L3722.32,329.714L3727.63,329.714C3729.49,329.714 3730.41,328.891 3730.41,327.245C3730.41,325.599 3729.49,324.776 3727.63,324.776L3722.32,324.776Z" style="fill:white;fill-rule:nonzero;"/>
                <rect x="3743.54" y="316.933" width="9.438" height="26.25" style="fill:white;fill-rule:nonzero;"/>
                <rect x="3756.48" y="316.933" width="9.438" height="26.25" style="fill:white;fill-rule:nonzero;"/>
            </g>
        </g>
        <g id="RII-_stacked-Blue---curves-" serif:id="RII _stacked Blue  (curves)" transform="matrix(0.948214,0,0,1,67.7871,0)">
            <g transform="matrix(1.04189,0,0,2.99169,-2239.34,-1679.29)">
                <path d="M3846.45,859.234L3846.45,732.48L3893.83,732.48C3903.53,732.48 3911.69,734.181 3918.33,737.584C3924.97,740.987 3929.98,745.736 3933.39,751.833C3936.79,757.93 3938.49,765.005 3938.49,773.058C3938.49,781.111 3936.78,788.115 3933.34,794.07C3929.91,800.025 3924.85,804.619 3918.16,807.852C3911.47,811.084 3903.24,812.701 3893.49,812.701L3859.63,812.701L3859.63,793.9L3890.51,793.9C3896.24,793.9 3900.92,793.092 3904.55,791.476C3908.18,789.859 3910.87,787.492 3912.63,784.372C3914.39,781.253 3915.27,777.482 3915.27,773.058C3915.27,768.521 3914.39,764.65 3912.63,761.446C3910.87,758.242 3908.16,755.789 3904.51,754.088C3900.85,752.386 3896.13,751.535 3890.34,751.535L3869.16,751.535L3869.16,859.234L3846.45,859.234ZM3917.73,859.234L3886.94,801.727L3911.78,801.727L3943.17,859.234L3917.73,859.234Z" style="fill-rule:nonzero;"/>
                <path d="M3960.1,859.234L3960.1,732.48L4042.45,732.48L4042.45,751.62L3982.81,751.62L3982.81,785.819L4038.02,785.819L4038.02,804.704L3982.81,804.704L3982.81,840.093L4042.79,840.093L4042.79,859.234L3960.1,859.234Z" style="fill-rule:nonzero;"/>
                <path d="M4110.08,861.191C4100.27,861.191 4091.74,859.659 4084.51,856.597C4077.28,853.534 4071.63,849.082 4067.54,843.241C4063.46,837.399 4061.25,830.31 4060.91,821.973L4083.28,821.973C4083.68,826.397 4085.07,830.083 4087.45,833.032C4089.83,835.981 4092.98,838.179 4096.89,839.625C4100.81,841.072 4105.14,841.795 4109.91,841.795C4114.9,841.795 4119.31,841.029 4123.14,839.498C4126.96,837.966 4129.95,835.826 4132.11,833.075C4134.27,830.324 4135.34,827.134 4135.34,823.505C4135.34,820.215 4134.39,817.493 4132.49,815.338C4130.59,813.183 4127.93,811.354 4124.5,809.851C4121.07,808.348 4117.05,807.029 4112.46,805.895L4098.08,802.152C4087.48,799.43 4079.21,795.318 4073.28,789.817C4067.36,784.316 4064.39,777.085 4064.39,768.124C4064.39,760.638 4066.41,754.088 4070.43,748.473C4074.46,742.858 4079.96,738.506 4086.94,735.415C4093.91,732.324 4101.82,730.778 4110.67,730.778C4119.69,730.778 4127.6,732.338 4134.41,735.457C4141.21,738.576 4146.53,742.887 4150.36,748.388C4154.19,753.889 4156.19,760.156 4156.36,767.188L4134.32,767.188C4133.76,761.744 4131.33,757.533 4127.05,754.555C4122.77,751.578 4117.19,750.089 4110.33,750.089C4105.57,750.089 4101.47,750.812 4098.04,752.259C4094.61,753.705 4091.97,755.675 4090.13,758.171C4088.29,760.666 4087.36,763.53 4087.36,766.763C4087.36,770.279 4088.45,773.172 4090.64,775.44C4092.82,777.709 4095.57,779.523 4098.89,780.885C4102.21,782.246 4105.57,783.352 4108.97,784.202L4120.8,787.265C4125.5,788.399 4130.07,789.902 4134.49,791.773C4138.92,793.645 4142.9,796.013 4146.44,798.877C4149.99,801.741 4152.81,805.215 4154.91,809.298C4157.01,813.381 4158.06,818.174 4158.06,823.675C4158.06,831.104 4156.16,837.64 4152.36,843.283C4148.56,848.926 4143.08,853.322 4135.94,856.469C4128.79,859.617 4120.17,861.191 4110.08,861.191Z" style="fill-rule:nonzero;"/>
                <path d="M4178.9,859.234L4178.9,732.48L4261.25,732.48L4261.25,751.62L4201.61,751.62L4201.61,785.819L4256.82,785.819L4256.82,804.704L4201.61,804.704L4201.61,840.093L4261.59,840.093L4261.59,859.234L4178.9,859.234Z" style="fill-rule:nonzero;"/>
                <path d="M4275.88,859.234L4320.11,732.48L4348.95,732.48L4394.21,859.234L4369.28,859.234L4346.74,793.39C4344.53,786.584 4342.23,778.885 4339.85,770.293C4337.47,761.701 4334.83,751.932 4331.94,740.987L4336.7,740.987C4333.87,752.046 4331.3,761.9 4329.01,770.549C4326.71,779.197 4324.54,786.811 4322.5,793.39L4300.72,859.234L4275.88,859.234ZM4301.65,827.843L4301.65,809.553L4368.44,809.553L4368.44,827.843L4301.65,827.843Z" style="fill-rule:nonzero;"/>
                <path d="M4411.14,859.234L4411.14,732.48L4458.52,732.48C4468.22,732.48 4476.39,734.181 4483.02,737.584C4489.66,740.987 4494.68,745.736 4498.08,751.833C4501.48,757.93 4503.19,765.005 4503.19,773.058C4503.19,781.111 4501.47,788.115 4498.04,794.07C4494.61,800.025 4489.55,804.619 4482.85,807.852C4476.16,811.084 4467.94,812.701 4458.18,812.701L4424.32,812.701L4424.32,793.9L4455.21,793.9C4460.93,793.9 4465.61,793.092 4469.24,791.476C4472.87,789.859 4475.57,787.492 4477.32,784.372C4479.08,781.253 4479.96,777.482 4479.96,773.058C4479.96,768.521 4479.08,764.65 4477.32,761.446C4475.57,758.242 4472.86,755.789 4469.2,754.088C4465.54,752.386 4460.82,751.535 4455.04,751.535L4433.85,751.535L4433.85,859.234L4411.14,859.234ZM4482.43,859.234L4451.63,801.727L4476.47,801.727L4507.86,859.234L4482.43,859.234Z" style="fill-rule:nonzero;"/>
                <path d="M4578.81,860.935C4567.7,860.935 4557.77,858.355 4549.04,853.194C4540.3,848.033 4533.41,840.604 4528.37,830.906C4523.32,821.208 4520.8,809.553 4520.8,795.942C4520.8,782.274 4523.33,770.577 4528.41,760.851C4533.48,751.124 4540.4,743.681 4549.17,738.52C4557.93,733.359 4567.81,730.778 4578.81,730.778C4585.73,730.778 4592.21,731.757 4598.25,733.713C4604.29,735.67 4609.68,738.534 4614.41,742.305C4619.15,746.077 4623.05,750.685 4626.11,756.129C4629.17,761.574 4631.22,767.755 4632.24,774.674L4609.35,774.674C4608.61,770.875 4607.35,767.529 4605.57,764.636C4603.78,761.744 4601.56,759.291 4598.89,757.278C4596.22,755.264 4593.22,753.733 4589.87,752.684C4586.53,751.635 4582.95,751.11 4579.15,751.11C4572.23,751.11 4566.1,752.854 4560.73,756.342C4555.38,759.83 4551.18,764.906 4548.15,771.569C4545.11,778.233 4543.59,786.357 4543.59,795.942C4543.59,805.64 4545.12,813.807 4548.19,820.442C4551.25,827.078 4555.46,832.097 4560.82,835.499C4566.18,838.902 4572.26,840.604 4579.07,840.604C4582.87,840.604 4586.44,840.079 4589.79,839.03C4593.13,837.981 4596.15,836.449 4598.85,834.436C4601.54,832.423 4603.8,829.956 4605.61,827.035C4607.42,824.114 4608.67,820.782 4609.35,817.039L4632.32,817.039C4631.47,823.108 4629.61,828.793 4626.75,834.096C4623.89,839.398 4620.13,844.063 4615.48,848.09C4610.83,852.116 4605.43,855.264 4599.27,857.533C4593.12,859.801 4586.3,860.935 4578.81,860.935Z" style="fill-rule:nonzero;"/>
                <path d="M4653.16,859.234L4653.16,732.48L4675.88,732.48L4675.88,784.883L4734.83,784.883L4734.83,732.48L4757.54,732.48L4757.54,859.234L4734.83,859.234L4734.83,804.024L4675.88,804.024L4675.88,859.234L4653.16,859.234Z" style="fill-rule:nonzero;"/>
                <rect x="3846.45" y="970.519" width="22.714" height="126.754" style="fill-rule:nonzero;"/>
                <path d="M3896.42,1097.27L3896.42,970.519L3922.11,970.519L3965.92,1040.36C3967.74,1043.25 3969.67,1046.53 3971.71,1050.19C3973.75,1053.85 3975.88,1057.93 3978.09,1062.44C3980.3,1066.95 3982.49,1071.95 3984.64,1077.45L3982.09,1077.45C3981.69,1072.69 3981.34,1067.8 3981.02,1062.78C3980.71,1057.76 3980.49,1053 3980.34,1048.49C3980.2,1043.98 3980.13,1040.16 3980.13,1037.04L3980.13,970.519L4003.18,970.519L4003.18,1097.27L3977.41,1097.27L3937.85,1034.41C3935.36,1030.38 3933,1026.41 3930.79,1022.5C3928.58,1018.58 3926.2,1014.16 3923.64,1009.23C3921.09,1004.29 3918,998.337 3914.37,991.362L3917.61,991.362C3917.95,997.543 3918.26,1003.4 3918.54,1008.93C3918.82,1014.46 3919.07,1019.41 3919.26,1023.77C3919.46,1028.14 3919.56,1031.66 3919.56,1034.32L3919.56,1097.27L3896.42,1097.27Z" style="fill-rule:nonzero;"/>
                <path d="M4028.71,1097.27L4028.71,970.519L4054.4,970.519L4098.21,1040.36C4100.02,1043.25 4101.95,1046.53 4103.99,1050.19C4106.03,1053.85 4108.16,1057.93 4110.37,1062.44C4112.59,1066.95 4114.77,1071.95 4116.92,1077.45L4114.37,1077.45C4113.97,1072.69 4113.62,1067.8 4113.31,1062.78C4113,1057.76 4112.77,1053 4112.63,1048.49C4112.49,1043.98 4112.41,1040.16 4112.41,1037.04L4112.41,970.519L4135.47,970.519L4135.47,1097.27L4109.69,1097.27L4070.14,1034.41C4067.64,1030.38 4065.29,1026.41 4063.07,1022.5C4060.86,1018.58 4058.48,1014.16 4055.93,1009.23C4053.38,1004.29 4050.29,998.337 4046.66,991.362L4049.89,991.362C4050.23,997.543 4050.54,1003.4 4050.82,1008.93C4051.11,1014.46 4051.35,1019.41 4051.55,1023.77C4051.75,1028.14 4051.85,1031.66 4051.85,1034.32L4051.85,1097.27L4028.71,1097.27Z" style="fill-rule:nonzero;"/>
                <path d="M4215.26,1098.98C4204.15,1098.98 4194.19,1096.39 4185.4,1091.23C4176.61,1086.07 4169.68,1078.64 4164.61,1068.94C4159.53,1059.25 4156.99,1047.59 4156.99,1033.98C4156.99,1020.31 4159.53,1008.62 4164.61,998.89C4169.68,989.164 4176.61,981.72 4185.4,976.559C4194.19,971.399 4204.15,968.818 4215.26,968.818C4226.32,968.818 4236.23,971.399 4245,976.559C4253.76,981.72 4260.68,989.164 4265.75,998.89C4270.83,1008.62 4273.37,1020.31 4273.37,1033.98C4273.37,1047.59 4270.83,1059.26 4265.75,1068.99C4260.68,1078.71 4253.76,1086.14 4245,1091.28C4236.23,1096.41 4226.32,1098.98 4215.26,1098.98ZM4215.26,1078.64C4222.13,1078.64 4228.21,1076.93 4233.51,1073.5C4238.82,1070.07 4242.97,1065.02 4245.98,1058.35C4248.98,1051.69 4250.48,1043.57 4250.48,1033.98C4250.48,1024.28 4248.98,1016.1 4245.98,1009.44C4242.97,1002.77 4238.82,997.728 4233.51,994.296C4228.21,990.865 4222.13,989.15 4215.26,989.15C4208.35,989.15 4202.22,990.88 4196.89,994.339C4191.56,997.799 4187.38,1002.86 4184.34,1009.52C4181.31,1016.19 4179.79,1024.34 4179.79,1033.98C4179.79,1043.57 4181.31,1051.68 4184.34,1058.31C4187.38,1064.95 4191.56,1070 4196.89,1073.45C4202.22,1076.91 4208.35,1078.64 4215.26,1078.64Z" style="fill-rule:nonzero;"/>
                <path d="M4324.92,1097.27L4279.75,970.519L4304.67,970.519L4327.13,1036.36C4329.23,1042.94 4331.5,1050.53 4333.94,1059.12C4336.38,1067.71 4339.01,1077.42 4341.85,1088.26L4337.09,1088.26C4339.92,1077.25 4342.52,1067.5 4344.87,1058.99C4347.22,1050.49 4349.42,1042.94 4351.46,1036.36L4373.24,970.519L4398.08,970.519L4353.67,1097.27L4324.92,1097.27Z" style="fill-rule:nonzero;"/>
                <path d="M4393.4,1097.27L4437.64,970.519L4466.48,970.519L4511.73,1097.27L4486.81,1097.27L4464.26,1031.43C4462.05,1024.62 4459.76,1016.93 4457.37,1008.33C4454.99,999.741 4452.35,989.972 4449.46,979.026L4454.23,979.026C4451.39,990.086 4448.82,999.939 4446.53,1008.59C4444.23,1017.24 4442.06,1024.85 4440.02,1031.43L4418.24,1097.27L4393.4,1097.27ZM4419.18,1065.88L4419.18,1047.59L4485.96,1047.59L4485.96,1065.88L4419.18,1065.88Z" style="fill-rule:nonzero;"/>
                <path d="M4507.73,989.66L4507.73,970.519L4608.63,970.519L4608.63,989.66L4569.58,989.66L4569.58,1097.27L4546.87,1097.27L4546.87,989.66L4507.73,989.66Z" style="fill-rule:nonzero;"/>
                <rect x="4628.45" y="970.519" width="22.714" height="126.754" style="fill-rule:nonzero;"/>
                <path d="M4730.96,1098.98C4719.84,1098.98 4709.89,1096.39 4701.1,1091.23C4692.31,1086.07 4685.38,1078.64 4680.3,1068.94C4675.22,1059.25 4672.69,1047.59 4672.69,1033.98C4672.69,1020.31 4675.22,1008.62 4680.3,998.89C4685.38,989.164 4692.31,981.72 4701.1,976.559C4709.89,971.399 4719.84,968.818 4730.96,968.818C4742.02,968.818 4751.93,971.399 4760.69,976.559C4769.45,981.72 4776.37,989.164 4781.45,998.89C4786.52,1008.62 4789.06,1020.31 4789.06,1033.98C4789.06,1047.59 4786.52,1059.26 4781.45,1068.99C4776.37,1078.71 4769.45,1086.14 4760.69,1091.28C4751.93,1096.41 4742.02,1098.98 4730.96,1098.98ZM4730.96,1078.64C4737.82,1078.64 4743.9,1076.93 4749.21,1073.5C4754.51,1070.07 4758.66,1065.02 4761.67,1058.35C4764.67,1051.69 4766.18,1043.57 4766.18,1033.98C4766.18,1024.28 4764.67,1016.1 4761.67,1009.44C4758.66,1002.77 4754.51,997.728 4749.21,994.296C4743.9,990.865 4737.82,989.15 4730.96,989.15C4724.04,989.15 4717.91,990.88 4712.58,994.339C4707.25,997.799 4703.07,1002.86 4700.03,1009.52C4697,1016.19 4695.48,1024.34 4695.48,1033.98C4695.48,1043.57 4697,1051.68 4700.03,1058.31C4703.07,1064.95 4707.25,1070 4712.58,1073.45C4717.91,1076.91 4724.04,1078.64 4730.96,1078.64Z" style="fill-rule:nonzero;"/>
                <path d="M4810.58,1097.27L4810.58,970.519L4836.28,970.519L4880.09,1040.36C4881.9,1043.25 4883.83,1046.53 4885.87,1050.19C4887.91,1053.85 4890.04,1057.93 4892.25,1062.44C4894.46,1066.95 4896.65,1071.95 4898.8,1077.45L4896.25,1077.45C4895.85,1072.69 4895.5,1067.8 4895.19,1062.78C4894.87,1057.76 4894.65,1053 4894.51,1048.49C4894.36,1043.98 4894.29,1040.16 4894.29,1037.04L4894.29,970.519L4917.35,970.519L4917.35,1097.27L4891.57,1097.27L4852.01,1034.41C4849.52,1030.38 4847.16,1026.41 4844.95,1022.5C4842.74,1018.58 4840.36,1014.16 4837.81,1009.23C4835.25,1004.29 4832.16,998.337 4828.53,991.362L4831.77,991.362C4832.11,997.543 4832.42,1003.4 4832.7,1008.93C4832.99,1014.46 4833.23,1019.41 4833.43,1023.77C4833.62,1028.14 4833.72,1031.66 4833.72,1034.32L4833.72,1097.27L4810.58,1097.27Z" style="fill-rule:nonzero;"/>
                <path d="M4987.36,1099.23C4977.55,1099.23 4969.03,1097.7 4961.8,1094.64C4954.57,1091.57 4948.91,1087.12 4944.82,1081.28C4940.74,1075.44 4938.53,1068.35 4938.19,1060.01L4960.56,1060.01C4960.96,1064.44 4962.35,1068.12 4964.73,1071.07C4967.11,1074.02 4970.26,1076.22 4974.17,1077.66C4978.09,1079.11 4982.43,1079.83 4987.19,1079.83C4992.18,1079.83 4996.59,1079.07 5000.42,1077.54C5004.25,1076.01 5007.24,1073.87 5009.39,1071.12C5011.55,1068.36 5012.62,1065.17 5012.62,1061.54C5012.62,1058.26 5011.68,1055.53 5009.78,1053.38C5007.88,1051.22 5005.21,1049.39 5001.78,1047.89C4998.35,1046.39 4994.34,1045.07 4989.74,1043.93L4975.36,1040.19C4964.76,1037.47 4956.49,1033.36 4950.57,1027.86C4944.64,1022.36 4941.68,1015.12 4941.68,1006.16C4941.68,998.678 4943.69,992.127 4947.72,986.513C4951.74,980.898 4957.24,976.545 4964.22,973.454C4971.2,970.363 4979.11,968.818 4987.95,968.818C4996.97,968.818 5004.88,970.378 5011.69,973.497C5018.49,976.616 5023.81,980.926 5027.64,986.428C5031.47,991.929 5033.47,998.196 5033.64,1005.23L5011.6,1005.23C5011.04,999.784 5008.61,995.573 5004.33,992.595C5000.05,989.618 4994.48,988.129 4987.61,988.129C4982.85,988.129 4978.75,988.852 4975.32,990.298C4971.89,991.744 4969.25,993.715 4967.41,996.211C4965.57,998.706 4964.65,1001.57 4964.65,1004.8C4964.65,1008.32 4965.74,1011.21 4967.92,1013.48C4970.1,1015.75 4972.86,1017.56 4976.17,1018.92C4979.49,1020.28 4982.85,1021.39 4986.25,1022.24L4998.08,1025.3C5002.78,1026.44 5007.35,1027.94 5011.77,1029.81C5016.2,1031.68 5020.18,1034.05 5023.73,1036.92C5027.27,1039.78 5030.09,1043.25 5032.19,1047.34C5034.29,1051.42 5035.34,1056.21 5035.34,1061.71C5035.34,1069.14 5033.44,1075.68 5029.64,1081.32C5025.84,1086.97 5020.37,1091.36 5013.22,1094.51C5006.07,1097.66 4997.45,1099.23 4987.36,1099.23Z" style="fill-rule:nonzero;"/>
                <rect x="3846.45" y="1208.56" width="22.714" height="126.754" style="fill-rule:nonzero;"/>
                <path d="M3898.16,1335.31L3898.16,1208.56L3923.86,1208.56L3967.67,1278.4C3969.48,1281.29 3971.41,1284.57 3973.45,1288.23C3975.49,1291.88 3977.62,1295.97 3979.83,1300.48C3982.04,1304.99 3984.23,1309.99 3986.38,1315.49L3983.83,1315.49C3983.43,1310.73 3983.08,1305.84 3982.77,1300.82C3982.45,1295.8 3982.23,1291.03 3982.09,1286.53C3981.94,1282.02 3981.87,1278.2 3981.87,1275.08L3981.87,1208.56L4004.93,1208.56L4004.93,1335.31L3979.15,1335.31L3939.59,1272.45C3937.1,1268.42 3934.74,1264.45 3932.53,1260.54C3930.32,1256.62 3927.94,1252.2 3925.39,1247.27C3922.84,1242.33 3919.74,1236.38 3916.11,1229.4L3919.35,1229.4C3919.69,1235.58 3920,1241.44 3920.28,1246.97C3920.57,1252.5 3920.81,1257.45 3921.01,1261.81C3921.2,1266.18 3921.3,1269.7 3921.3,1272.36L3921.3,1335.31L3898.16,1335.31Z" style="fill-rule:nonzero;"/>
                <path d="M4084.47,1337.02C4073.35,1337.02 4063.43,1334.43 4054.69,1329.27C4045.96,1324.11 4039.07,1316.68 4034.02,1306.99C4028.97,1297.29 4026.45,1285.63 4026.45,1272.02C4026.45,1258.35 4028.99,1246.66 4034.06,1236.93C4039.14,1227.2 4046.06,1219.76 4054.82,1214.6C4063.58,1209.44 4073.47,1206.86 4084.47,1206.86C4091.39,1206.86 4097.87,1207.84 4103.91,1209.79C4109.95,1211.75 4115.33,1214.61 4120.07,1218.38C4124.81,1222.16 4128.7,1226.76 4131.77,1232.21C4134.83,1237.65 4136.87,1243.84 4137.89,1250.75L4115.01,1250.75C4114.27,1246.95 4113.01,1243.61 4111.22,1240.72C4109.44,1237.82 4107.21,1235.37 4104.54,1233.36C4101.88,1231.34 4098.87,1229.81 4095.53,1228.76C4092.18,1227.71 4088.61,1227.19 4084.81,1227.19C4077.89,1227.19 4071.75,1228.93 4066.39,1232.42C4061.03,1235.91 4056.83,1240.99 4053.8,1247.65C4050.77,1254.31 4049.25,1262.44 4049.25,1272.02C4049.25,1281.72 4050.78,1289.89 4053.84,1296.52C4056.91,1303.16 4061.12,1308.18 4066.47,1311.58C4071.84,1314.98 4077.92,1316.68 4084.72,1316.68C4088.52,1316.68 4092.1,1316.16 4095.44,1315.11C4098.79,1314.06 4101.81,1312.53 4104.5,1310.52C4107.2,1308.5 4109.45,1306.04 4111.27,1303.11C4113.08,1300.19 4114.33,1296.86 4115.01,1293.12L4137.98,1293.12C4137.13,1299.19 4135.27,1304.87 4132.4,1310.17C4129.54,1315.48 4125.78,1320.14 4121.13,1324.17C4116.48,1328.2 4111.08,1331.34 4104.93,1333.61C4098.77,1335.88 4091.95,1337.02 4084.47,1337.02Z" style="fill-rule:nonzero;"/>
                <path d="M4213.09,1337.02C4201.98,1337.02 4192.02,1334.43 4183.23,1329.27C4174.44,1324.11 4167.51,1316.68 4162.43,1306.99C4157.36,1297.29 4154.82,1285.63 4154.82,1272.02C4154.82,1258.35 4157.36,1246.66 4162.43,1236.93C4167.51,1227.2 4174.44,1219.76 4183.23,1214.6C4192.02,1209.44 4201.98,1206.86 4213.09,1206.86C4224.15,1206.86 4234.06,1209.44 4242.82,1214.6C4251.59,1219.76 4258.51,1227.2 4263.58,1236.93C4268.66,1246.66 4271.2,1258.35 4271.2,1272.02C4271.2,1285.63 4268.66,1297.3 4263.58,1307.03C4258.51,1316.75 4251.59,1324.18 4242.82,1329.32C4234.06,1334.45 4224.15,1337.02 4213.09,1337.02ZM4213.09,1316.68C4219.96,1316.68 4226.04,1314.97 4231.34,1311.54C4236.64,1308.11 4240.8,1303.06 4243.8,1296.39C4246.81,1289.73 4248.31,1281.61 4248.31,1272.02C4248.31,1262.32 4246.81,1254.14 4243.8,1247.48C4240.8,1240.82 4236.64,1235.77 4231.34,1232.34C4226.04,1228.9 4219.96,1227.19 4213.09,1227.19C4206.17,1227.19 4200.05,1228.92 4194.72,1232.38C4189.39,1235.84 4185.2,1240.9 4182.17,1247.56C4179.14,1254.23 4177.62,1262.38 4177.62,1272.02C4177.62,1281.61 4179.14,1289.72 4182.17,1296.35C4185.2,1302.99 4189.39,1308.03 4194.72,1311.49C4200.05,1314.95 4206.17,1316.68 4213.09,1316.68Z" style="fill-rule:nonzero;"/>
                <path d="M4292.72,1335.31L4292.72,1208.56L4340.1,1208.56C4349.8,1208.56 4357.97,1210.26 4364.6,1213.66C4371.24,1217.07 4376.26,1221.82 4379.66,1227.91C4383.06,1234.01 4384.77,1241.08 4384.77,1249.14C4384.77,1257.19 4383.05,1264.19 4379.62,1270.15C4376.19,1276.11 4371.12,1280.7 4364.43,1283.93C4357.74,1287.16 4349.52,1288.78 4339.76,1288.78L4305.9,1288.78L4305.9,1269.98L4336.78,1269.98C4342.51,1269.98 4347.19,1269.17 4350.82,1267.56C4354.45,1265.94 4357.15,1263.57 4358.9,1260.45C4360.66,1257.33 4361.54,1253.56 4361.54,1249.14C4361.54,1244.6 4360.66,1240.73 4358.9,1237.53C4357.15,1234.32 4354.44,1231.87 4350.78,1230.17C4347.12,1228.47 4342.4,1227.62 4336.61,1227.62L4315.43,1227.62L4315.43,1335.31L4292.72,1335.31ZM4364.01,1335.31L4333.21,1277.81L4358.05,1277.81L4389.44,1335.31L4364.01,1335.31Z" style="fill-rule:nonzero;"/>
                <path d="M4406.37,1335.31L4406.37,1208.56L4453.76,1208.56C4463.45,1208.56 4471.62,1210.37 4478.26,1214C4484.89,1217.63 4489.91,1222.61 4493.31,1228.93C4496.72,1235.26 4498.42,1242.44 4498.42,1250.5C4498.42,1258.61 4496.7,1265.81 4493.27,1272.11C4489.84,1278.4 4484.78,1283.36 4478.09,1286.99C4471.39,1290.62 4463.17,1292.44 4453.42,1292.44L4422.03,1292.44L4422.03,1273.72L4450.44,1273.72C4456.17,1273.72 4460.86,1272.73 4464.52,1270.75C4468.18,1268.76 4470.87,1266.01 4472.6,1262.49C4474.33,1258.98 4475.19,1254.98 4475.19,1250.5C4475.19,1246.02 4474.33,1242.05 4472.6,1238.59C4470.87,1235.13 4468.16,1232.43 4464.48,1230.51C4460.79,1228.58 4456.05,1227.62 4450.27,1227.62L4429.09,1227.62L4429.09,1335.31L4406.37,1335.31Z" style="fill-rule:nonzero;"/>
                <path d="M4573.02,1337.02C4561.91,1337.02 4551.95,1334.43 4543.16,1329.27C4534.37,1324.11 4527.44,1316.68 4522.36,1306.99C4517.29,1297.29 4514.75,1285.63 4514.75,1272.02C4514.75,1258.35 4517.29,1246.66 4522.36,1236.93C4527.44,1227.2 4534.37,1219.76 4543.16,1214.6C4551.95,1209.44 4561.91,1206.86 4573.02,1206.86C4584.08,1206.86 4593.99,1209.44 4602.76,1214.6C4611.52,1219.76 4618.44,1227.2 4623.51,1236.93C4628.59,1246.66 4631.13,1258.35 4631.13,1272.02C4631.13,1285.63 4628.59,1297.3 4623.51,1307.03C4618.44,1316.75 4611.52,1324.18 4602.76,1329.32C4593.99,1334.45 4584.08,1337.02 4573.02,1337.02ZM4573.02,1316.68C4579.89,1316.68 4585.97,1314.97 4591.27,1311.54C4596.57,1308.11 4600.73,1303.06 4603.73,1296.39C4606.74,1289.73 4608.24,1281.61 4608.24,1272.02C4608.24,1262.32 4606.74,1254.14 4603.73,1247.48C4600.73,1240.82 4596.57,1235.77 4591.27,1232.34C4585.97,1228.9 4579.89,1227.19 4573.02,1227.19C4566.11,1227.19 4559.98,1228.92 4554.65,1232.38C4549.32,1235.84 4545.14,1240.9 4542.1,1247.56C4539.07,1254.23 4537.55,1262.38 4537.55,1272.02C4537.55,1281.61 4539.07,1289.72 4542.1,1296.35C4545.14,1302.99 4549.32,1308.03 4554.65,1311.49C4559.98,1314.95 4566.11,1316.68 4573.02,1316.68Z" style="fill-rule:nonzero;"/>
                <path d="M4652.65,1335.31L4652.65,1208.56L4700.03,1208.56C4709.73,1208.56 4717.9,1210.26 4724.53,1213.66C4731.17,1217.07 4736.19,1221.82 4739.59,1227.91C4742.99,1234.01 4744.69,1241.08 4744.69,1249.14C4744.69,1257.19 4742.98,1264.19 4739.55,1270.15C4736.12,1276.11 4731.06,1280.7 4724.36,1283.93C4717.67,1287.16 4709.45,1288.78 4699.69,1288.78L4665.84,1288.78L4665.84,1269.98L4696.72,1269.98C4702.44,1269.98 4707.12,1269.17 4710.75,1267.56C4714.38,1265.94 4717.08,1263.57 4718.83,1260.45C4720.59,1257.33 4721.47,1253.56 4721.47,1249.14C4721.47,1244.6 4720.59,1240.73 4718.83,1237.53C4717.08,1234.32 4714.37,1231.87 4710.71,1230.17C4707.05,1228.47 4702.33,1227.62 4696.55,1227.62L4675.36,1227.62L4675.36,1335.31L4652.65,1335.31ZM4723.94,1335.31L4693.14,1277.81L4717.98,1277.81L4749.37,1335.31L4723.94,1335.31Z" style="fill-rule:nonzero;"/>
                <path d="M4757.8,1335.31L4802.03,1208.56L4830.87,1208.56L4876.13,1335.31L4851.2,1335.31L4828.66,1269.47C4826.45,1262.66 4824.15,1254.96 4821.77,1246.37C4819.39,1237.78 4816.75,1228.01 4813.86,1217.07L4818.62,1217.07C4815.79,1228.12 4813.22,1237.98 4810.92,1246.63C4808.63,1255.28 4806.46,1262.89 4804.41,1269.47L4782.64,1335.31L4757.8,1335.31ZM4783.57,1303.92L4783.57,1285.63L4850.35,1285.63L4850.35,1303.92L4783.57,1303.92Z" style="fill-rule:nonzero;"/>
                <path d="M4872.13,1227.7L4872.13,1208.56L4973.02,1208.56L4973.02,1227.7L4933.98,1227.7L4933.98,1335.31L4911.26,1335.31L4911.26,1227.7L4872.13,1227.7Z" style="fill-rule:nonzero;"/>
                <path d="M4992.84,1335.31L4992.84,1208.56L5075.19,1208.56L5075.19,1227.7L5015.56,1227.7L5015.56,1261.9L5070.77,1261.9L5070.77,1280.78L5015.56,1280.78L5015.56,1316.17L5075.53,1316.17L5075.53,1335.31L4992.84,1335.31Z" style="fill-rule:nonzero;"/>
                <path d="M5141.21,1335.31L5109.14,1335.31L5109.14,1315.66L5140.1,1315.66C5148.95,1315.66 5156.34,1314.03 5162.26,1310.77C5168.19,1307.51 5172.65,1302.63 5175.66,1296.14C5178.67,1289.64 5180.17,1281.52 5180.17,1271.77C5180.17,1262.12 5178.67,1254.07 5175.66,1247.61C5172.65,1241.14 5168.24,1236.29 5162.43,1233.06C5156.62,1229.83 5149.37,1228.21 5140.7,1228.21L5108.45,1228.21L5108.45,1208.56L5142.06,1208.56C5154.65,1208.56 5165.45,1211.08 5174.47,1216.13C5183.49,1221.18 5190.42,1228.44 5195.27,1237.91C5200.12,1247.38 5202.54,1258.66 5202.54,1271.77C5202.54,1284.98 5200.12,1296.34 5195.27,1305.84C5190.42,1315.34 5183.41,1322.62 5174.26,1327.7C5165.1,1332.78 5154.08,1335.31 5141.21,1335.31ZM5121.05,1208.56L5121.05,1335.31L5098.33,1335.31L5098.33,1208.56L5121.05,1208.56Z" style="fill-rule:nonzero;"/>
            </g>
            <g transform="matrix(0.352192,0,0,1.01129,1873.21,1211.86)">
                <path d="M3840.75,751.62L3840.75,732.48L3941.64,732.48L3941.64,751.62L3902.59,751.62L3902.59,859.234L3879.88,859.234L3879.88,751.62L3840.75,751.62Z" style="fill-rule:nonzero;"/>
                <path d="M3961.46,859.234L3961.46,732.48L3995.66,732.48L4019.73,797.899C4020.58,800.337 4021.53,803.471 4022.58,807.299C4023.63,811.127 4024.71,815.253 4025.82,819.676C4026.92,824.1 4027.97,828.424 4028.96,832.65C4029.95,836.875 4030.79,840.604 4031.47,843.836L4026.88,843.836C4027.56,840.66 4028.4,836.988 4029.39,832.82C4030.38,828.651 4031.43,824.341 4032.54,819.889C4033.64,815.437 4034.72,811.283 4035.77,807.426C4036.82,803.57 4037.74,800.394 4038.53,797.899L4062.35,732.48L4096.64,732.48L4096.64,859.234L4074.01,859.234L4074.01,795.261C4074.01,792.539 4074.04,789.25 4074.09,785.393C4074.15,781.537 4074.23,777.397 4074.35,772.973C4074.46,768.549 4074.58,764.083 4074.69,759.575C4074.8,755.066 4074.86,750.77 4074.86,746.686L4076.47,746.686C4075.34,751.167 4074.11,755.746 4072.77,760.425C4071.44,765.104 4070.12,769.641 4068.82,774.036C4067.51,778.432 4066.28,782.473 4065.12,786.159C4063.95,789.845 4062.95,792.879 4062.1,795.261L4038.7,859.234L4019.39,859.234L3995.66,795.261C3994.81,792.879 3993.8,789.888 3992.64,786.286C3991.47,782.685 3990.23,778.701 3988.89,774.334C3987.56,769.967 3986.23,765.416 3984.9,760.68C3983.56,755.945 3982.24,751.28 3980.94,746.686L3982.81,746.686C3982.87,750.486 3982.95,754.612 3983.07,759.064C3983.18,763.516 3983.28,767.982 3983.37,772.463C3983.45,776.943 3983.54,781.154 3983.62,785.095C3983.71,789.037 3983.75,792.426 3983.75,795.261L3983.75,859.234L3961.46,859.234Z" style="fill-rule:nonzero;"/>
            </g>
            <g id="RII---Bllue" serif:id="RII - Bllue" transform="matrix(26.9799,0,0,77.4707,-100160,-24266)">
                <path d="M3740.85,343.183L3731.57,343.183L3728.26,336.745L3722.32,336.745L3722.32,343.183L3712.88,343.183L3712.88,316.933L3728.32,316.933C3736.03,316.933 3739.88,320.349 3739.88,327.183C3739.88,330.391 3738.68,332.891 3736.29,334.683L3740.85,343.183ZM3722.32,324.776L3722.32,329.714L3727.63,329.714C3729.49,329.714 3730.41,328.891 3730.41,327.245C3730.41,325.599 3729.49,324.776 3727.63,324.776L3722.32,324.776Z" style="fill:rgb(0,163,234);fill-rule:nonzero;"/>
                <rect x="3743.54" y="316.933" width="9.438" height="26.25" style="fill:rgb(0,163,234);fill-rule:nonzero;"/>
                <rect x="3756.48" y="316.933" width="9.438" height="26.25" style="fill:rgb(0,163,234);fill-rule:nonzero;"/>
            </g>
        </g>
    </g>
</svg>
